<?xml version="1.0" encoding="utf-8"?>
<!-- Generator: Adobe Illustrator 27.5.0, SVG Export Plug-In . SVG Version: 6.00 Build 0)  -->
<svg version="1.1" xmlns="http://www.w3.org/2000/svg" xmlns:xlink="http://www.w3.org/1999/xlink" x="0px" y="0px"
	 viewBox="0 0 500 500" style="enable-background:new 0 0 500 500;" xml:space="preserve">
<g id="BACKGROUND">
	<rect style="fill:#FFF7EA;" width="500" height="500"/>
	<rect y="364.689" style="fill:#FFF7EA;" width="500" height="135.311"/>
</g>
<g id="OBJECTS">
	<g>
		<path style="fill:#6FCC7B;" d="M183.598,367.331c1.998-7.617,3.92-15.778-1.59-22.27c-3.922-4.622-9.808-4.976-15.48-4.468
			c-4.707,0.422-7.317,1.984-9.754,5.04c-0.052-6.319-4.649-12.366-10.342-14.975c-6.075-2.784-12.797-1.701-17.928,2.094
			c1.31-11.251-1.287-24.238-13.106-28.195c-11.833-3.962-25.603-0.546-34.324,8.217c-1.046-4.867-3.957-9.807-8.248-11.888
			c-3.022-1.465-7.749-2.013-11.508-0.91c7.912-11.409,11.568-31.145-4.129-36.658c-11.438-4.018-26.355,2.853-35.168,12.591
			c-0.533-6.966-5.843-14.105-12.386-15.539c-3.459-0.758-6.699-0.406-9.636,0.712v106.248H183.598z"/>
		<g>
			<g>
				<path style="fill:#F7D454;" d="M105.201,316.229c-1.211,2.965-1.017,6.136,0.229,8.831c2.776-1.051,5.136-3.18,6.347-6.145
					c1.211-2.965,1.017-6.136-0.229-8.831C108.771,311.136,106.412,313.264,105.201,316.229z"/>
				<path style="fill:#F7D454;" d="M111.639,323.205c-2.105,0.085-3.95,1.067-5.222,2.549c1.387,1.374,3.305,2.205,5.41,2.12
					c2.105-0.085,3.95-1.067,5.222-2.549C115.661,323.951,113.744,323.12,111.639,323.205z"/>
				<path style="fill:#F7D454;" d="M32.927,284.071c3.073,0.903,6.208,0.387,8.762-1.126c-1.328-2.655-3.685-4.786-6.758-5.689
					c-3.073-0.904-6.208-0.388-8.762,1.126C27.497,281.037,29.854,283.168,32.927,284.071z"/>
				<path style="fill:#F7D454;" d="M39.213,276.957c0.298,2.085,1.463,3.82,3.067,4.935c1.226-1.52,1.857-3.512,1.559-5.597
					c-0.299-2.086-1.464-3.821-3.067-4.935C39.545,272.879,38.914,274.872,39.213,276.957z"/>
				<path style="fill:#F7D454;" d="M28.284,348.663c1.579-2.787,1.789-5.957,0.896-8.788c-2.887,0.69-5.498,2.5-7.077,5.287
					c-1.578,2.787-1.789,5.957-0.896,8.788C24.095,353.261,26.706,351.45,28.284,348.663z"/>
				<path style="fill:#F7D454;" d="M22.786,340.925c2.099,0.184,4.053-0.556,5.503-1.864c-1.201-1.539-2.998-2.607-5.096-2.791
					c-2.099-0.184-4.053,0.556-5.503,1.864C18.891,339.673,20.687,340.741,22.786,340.925z"/>
				<path style="fill:#F7D454;" d="M179.159,357.893c1.579-2.787,1.789-5.957,0.896-8.788c-2.887,0.69-5.498,2.5-7.077,5.287
					c-1.579,2.787-1.789,5.957-0.896,8.788C174.969,362.491,177.58,360.68,179.159,357.893z"/>
				<path style="fill:#F7D454;" d="M173.661,350.155c2.099,0.184,4.053-0.556,5.504-1.864c-1.201-1.539-2.998-2.607-5.096-2.791
					c-2.099-0.184-4.053,0.556-5.503,1.864C169.765,348.903,171.562,349.971,173.661,350.155z"/>
				<path style="fill:#F7D454;" d="M2.56,298.638c-1.229,2.958-1.054,6.13,0.176,8.832c2.783-1.035,5.155-3.149,6.384-6.106
					c1.229-2.958,1.053-6.13-0.177-8.832C6.161,293.566,3.789,295.68,2.56,298.638z"/>
				<path style="fill:#F7D454;" d="M8.956,305.652c-2.105,0.072-3.956,1.044-5.237,2.517c1.379,1.383,3.292,2.224,5.397,2.152
					c2.105-0.072,3.956-1.044,5.237-2.517C12.975,306.422,11.062,305.58,8.956,305.652z"/>
				<path style="fill:#F7D454;" d="M61.141,312.796c-2.105,0.072-3.956,1.044-5.237,2.517c1.379,1.383,3.292,2.225,5.397,2.152
					c2.105-0.072,3.956-1.044,5.237-2.518C65.16,313.565,63.247,312.723,61.141,312.796z"/>
				<path style="fill:#F7D454;" d="M138.733,338.7c-1.06,1.821-1.223,3.904-0.657,5.773c1.904-0.431,3.636-1.602,4.695-3.423
					c1.06-1.821,1.223-3.904,0.657-5.773C141.524,335.708,139.792,336.879,138.733,338.7z"/>
				<path style="fill:#F7D454;" d="M7.653,274.034c-1.06,1.821-1.223,3.904-0.657,5.773c1.905-0.431,3.636-1.602,4.695-3.423
					c1.06-1.821,1.223-3.904,0.657-5.773C10.443,271.043,8.712,272.214,7.653,274.034z"/>
				<path style="fill:#F7D454;" d="M83.569,334.102c-1.06,1.821-1.223,3.904-0.657,5.773c1.904-0.431,3.635-1.602,4.695-3.423
					c1.06-1.821,1.223-3.904,0.657-5.773C86.36,331.11,84.629,332.281,83.569,334.102z"/>
				<path style="fill:#F7D454;" d="M64.519,347.896c-1.06,1.821-1.223,3.904-0.657,5.773c1.905-0.431,3.636-1.602,4.695-3.423
					c1.06-1.821,1.223-3.904,0.657-5.773C67.31,344.904,65.579,346.075,64.519,347.896z"/>
				<path style="fill:#F7D454;" d="M14.668,322.273c-2.107,0-3.989,0.907-5.32,2.336c1.331,1.429,3.213,2.336,5.32,2.336
					c2.107,0,3.989-0.907,5.32-2.336C18.657,323.181,16.775,322.273,14.668,322.273z"/>
				<path style="fill:#F7D454;" d="M52.764,292.794c-2.107,0-3.989,0.907-5.32,2.336c1.331,1.429,3.213,2.336,5.32,2.336
					c2.107,0,3.989-0.907,5.32-2.336C56.754,293.702,54.871,292.794,52.764,292.794z"/>
				<path style="fill:#F7D454;" d="M9.012,355.502c0-2.107-0.907-3.989-2.336-5.32c-1.429,1.331-2.336,3.214-2.336,5.32
					c0,2.107,0.907,3.989,2.336,5.32C8.104,359.492,9.012,357.609,9.012,355.502z"/>
				<path style="fill:#F7D454;" d="M98.218,357.164c1.068,1.816,2.804,2.979,4.71,3.402c0.557-1.872,0.385-3.954-0.683-5.77
					c-1.068-1.816-2.804-2.979-4.71-3.402C96.978,353.266,97.15,355.348,98.218,357.164z"/>
				<path style="fill:#F7D454;" d="M88.431,321.467c1.068,1.816,2.804,2.979,4.711,3.402c0.557-1.871,0.385-3.954-0.683-5.77
					c-1.068-1.816-2.804-2.979-4.711-3.402C87.192,317.569,87.364,319.651,88.431,321.467z"/>
				<path style="fill:#F7D454;" d="M124.898,352.017c0.285,2.087,1.438,3.83,3.034,4.955c1.236-1.512,1.88-3.5,1.595-5.587
					c-0.285-2.087-1.438-3.83-3.034-4.955C125.258,347.941,124.613,349.929,124.898,352.017z"/>
				<path style="fill:#F7D454;" d="M46.686,330.806c1.068,1.816,2.804,2.979,4.711,3.402c0.557-1.871,0.385-3.954-0.683-5.77
					c-1.068-1.816-2.804-2.979-4.711-3.402C45.446,326.907,45.618,328.99,46.686,330.806z"/>
				<path style="fill:#F7D454;" d="M56.767,278.795c1.068,1.816,2.804,2.979,4.71,3.402c0.557-1.871,0.385-3.954-0.683-5.77
					c-1.068-1.816-2.804-2.979-4.71-3.402C55.527,274.897,55.7,276.979,56.767,278.795z"/>
				<path style="fill:#F7D454;" d="M32.791,306.575c-0.695,1.989-0.459,4.065,0.451,5.793c1.788-0.785,3.265-2.263,3.96-4.252
					c0.695-1.989,0.459-4.066-0.451-5.793C34.963,303.108,33.485,304.586,32.791,306.575z"/>
				<path style="fill:#F7D454;" d="M41.86,355.21c-0.695,1.989-0.459,4.065,0.451,5.793c1.788-0.785,3.265-2.263,3.96-4.252
					c0.695-1.989,0.459-4.065-0.451-5.793C44.032,351.743,42.555,353.221,41.86,355.21z"/>
				<path style="fill:#F7D454;" d="M150.505,357.368c1.251,1.695,3.1,2.67,5.04,2.892c0.359-1.919-0.03-3.973-1.282-5.667
					c-1.252-1.695-3.1-2.67-5.04-2.891C148.865,353.62,149.253,355.674,150.505,357.368z"/>
			</g>
		</g>
	</g>
	<g>
		<g>
			<g>
				<g>
					<path style="fill:#F7D454;" d="M310.168,201.532c0,0-12.305,7.32-16.023,45.482c0,0,1.37,17.126,21.136,19.033
						C335.047,267.954,310.168,201.532,310.168,201.532z"/>
					<path style="fill:#F7D454;" d="M362.996,201.532c0,0,12.305,7.32,16.023,45.482c0,0-1.37,17.126-21.136,19.033
						C338.118,267.954,362.996,201.532,362.996,201.532z"/>
					<path style="fill:#6FCC7B;" d="M362.996,201.532c-1.804-2.857-18.874-10.076-18.874-10.076l-8.695,2.329l-6.385-2.329
						c0,0-17.069,7.218-18.874,10.076c-1.805,2.857,2.557,64.515,2.557,64.515h21.293h2.444h23.978
						C360.44,266.047,364.801,204.389,362.996,201.532z"/>
				</g>
				<g>
					<g>
						<g>
							<path style="fill:#333C4D;" d="M301.409,244.701c2.656-1.413,5.219-1.367,8.125-1.676c0.426-0.045,0.441-0.649,0-0.675
								c-2.754-0.163-6.213,0.147-8.426,1.961C300.882,244.496,301.17,244.828,301.409,244.701L301.409,244.701z"/>
						</g>
					</g>
					<g>
						<g>
							<path style="fill:#333C4D;" d="M364.092,241.324c1.171-0.116,2.331-0.018,3.453,0.352c1.146,0.378,2.006,1.1,3.042,1.666
								c0.143,0.078,0.341-0.087,0.237-0.237c-1.405-2.031-4.522-2.512-6.784-2.167C363.822,240.97,363.871,241.346,364.092,241.324
								L364.092,241.324z"/>
						</g>
					</g>
					<g>
						<g>
							<path style="fill:#333C4D;" d="M325.429,193.847c0.285,6.645,4.174,9.85,10.646,10.235
								c6.175,0.368,10.732-4.875,10.953-10.857c0.009-0.243-0.393-0.307-0.433-0.059c-0.897,5.587-3.553,10.179-9.81,10.31
								c-6.385,0.133-10.632-3.105-11.141-9.629C325.634,193.71,325.423,193.707,325.429,193.847L325.429,193.847z"/>
						</g>
					</g>
					<g>
						<g>
							<path style="fill:#333C4D;" d="M309.396,210.886c0.682,18.385,1.413,36.849,3.221,55.161c0.013,0.135,0.221,0.141,0.216,0
								c-0.73-18.356-1.761-36.833-3.109-55.161C309.709,210.678,309.388,210.673,309.396,210.886L309.396,210.886z"/>
						</g>
					</g>
					<g>
						<g>
							<path style="fill:#333C4D;" d="M312.821,210.723c-1.138,3.129-2.061,6.31-2.98,9.508c-0.062,0.215,0.269,0.305,0.335,0.092
								c0.975-3.175,2.03-6.324,2.962-9.513C313.197,210.605,312.892,210.527,312.821,210.723L312.821,210.723z"/>
						</g>
					</g>
					<g>
						<g>
							<path style="fill:#333C4D;" d="M363.27,210.886c-1.348,18.328-2.379,36.806-3.108,55.161c-0.006,0.141,0.202,0.136,0.216,0
								c1.808-18.312,2.538-36.776,3.221-55.161C363.606,210.673,363.285,210.677,363.27,210.886L363.27,210.886z"/>
						</g>
					</g>
					<g>
						<g>
							<path style="fill:#333C4D;" d="M359.857,210.81c0.932,3.189,1.987,6.338,2.962,9.513c0.065,0.213,0.397,0.123,0.335-0.092
								c-0.919-3.198-1.842-6.379-2.98-9.508C360.102,210.527,359.797,210.604,359.857,210.81L359.857,210.81z"/>
						</g>
					</g>
				</g>
			</g>
			<g>
				<g>
					<path style="fill:#FFAE93;" d="M335.942,200.521h0.456c4.169,0,7.581-3.411,7.581-7.581v-8.879
						c0-4.169-3.411-7.581-7.581-7.581h-0.456c-4.169,0-7.581,3.411-7.581,7.581v8.879
						C328.362,197.11,331.773,200.521,335.942,200.521z"/>
					<path style="opacity:0.5;fill:#FFAE93;" d="M335.942,192.793h0.456c4.169,0,7.581-3.411,7.581-7.581v-8.879
						c0-4.169-3.411-7.581-7.581-7.581h-0.456c-4.169,0-7.581,3.411-7.581,7.581v8.879
						C328.362,189.382,331.773,192.793,335.942,192.793z"/>
				</g>
				<g>
					<path style="fill:#FFAE93;" d="M332.758,187.536h7.09c5.723,0,10.405-4.682,10.405-10.405v-19.549
						c0-5.723-4.682-10.405-10.405-10.405h-7.09c-5.723,0-10.405,4.682-10.405,10.405v19.549
						C322.353,182.854,327.035,187.536,332.758,187.536z"/>
					<path style="fill:#FFAE93;" d="M315.97,169.55c0,2.18,1.768,3.948,3.948,3.948c2.181,0,3.948-1.768,3.948-3.948
						s-1.768-3.948-3.948-3.948C317.738,165.602,315.97,167.37,315.97,169.55z"/>
					<g style="opacity:0.5;">
						<path style="fill:#FFAE93;" d="M320.515,170.912c-0.376-0.387-0.792-0.726-1.171-1.106c-0.324-0.325-0.911-0.669-0.992-1.142
							c-0.043-0.253,0.108-0.532,0.398-0.523c0.539,0.017,0.957,0.584,1.311,0.947c0.397,0.408,0.716,0.905,1.036,1.374
							C321.336,170.814,320.805,171.21,320.515,170.912L320.515,170.912z"/>
					</g>
					<path style="fill:#FFAE93;" d="M356.37,169.55c0,2.18-1.768,3.948-3.948,3.948s-3.948-1.768-3.948-3.948
						s1.768-3.948,3.948-3.948S356.37,167.37,356.37,169.55z"/>
					<g style="opacity:0.5;">
						<path style="fill:#FFAE93;" d="M351.826,170.912c0.376-0.387,0.792-0.726,1.171-1.106c0.324-0.325,0.911-0.669,0.992-1.142
							c0.043-0.253-0.108-0.532-0.398-0.523c-0.539,0.017-0.957,0.584-1.311,0.947c-0.397,0.408-0.716,0.905-1.036,1.374
							C351.004,170.814,351.536,171.21,351.826,170.912L351.826,170.912z"/>
					</g>
					<path style="fill:#333C4D;" d="M340.421,147.149c0.439-0.21,0.865-0.443,1.254-0.722c2.382-1.704,2.706-4.232,1.966-6.947
						c-0.794-2.909-3.041-5.456-6.147-5.849c-1.388-0.176-2.516,0.18-3.441,0.843c-2.214,0.558-3.71,3.22-4.18,5.348
						c-0.385,1.743,0.399,3.713,1.62,5.252c0.637,0.803,0.168,1.99-0.833,2.207c-8.773,1.902-9.05,9.075-9.033,13.129
						c0.003,0.777,0.63,1.404,1.407,1.404h6.243c0.692,0,1.281-0.504,1.39-1.187l1.279-8.096l0.954,8.043
						c0.084,0.708,0.684,1.241,1.397,1.241h2.248c0.654,0,1.221-0.451,1.37-1.087l1.08-4.632l0.484,4.464
						c0.077,0.714,0.68,1.255,1.399,1.255l0,0c0.697,0,1.289-0.511,1.392-1.201l0.694-4.692l1.284,5.893h1.197l0.441-3.118
						l0.459,2.022c0.145,0.641,0.715,1.095,1.372,1.095h2.356c0.823,0,1.47-0.706,1.404-1.526
						C350.961,153.938,349.801,148.52,340.421,147.149z"/>
				</g>
				<g>
					<g>
						<path style="fill:#333C4D;" d="M335.531,167.468c0.656,1.482,1.612,2.845,2.177,4.361c0.466,1.248,0.813,2.589-0.554,3.469
							c-0.545,0.35-1.111,0.371-1.624,0.759c-0.164,0.124-0.194,0.457,0.065,0.501c1.62,0.273,3.208-0.948,3.417-2.556
							c0.319-2.451-1.606-5.012-2.957-6.841C335.822,166.844,335.372,167.108,335.531,167.468L335.531,167.468z"/>
					</g>
					<g>
						<path style="fill:#333C4D;" d="M326.577,165.326c0.985-0.733,2.181-0.899,3.347-1.077c0.484-0.074,0.464-0.867,0-0.958
							c-0.709-0.139-1.486,0.05-2.141,0.331c-0.698,0.3-1.084,0.808-1.5,1.41C326.165,165.203,326.405,165.454,326.577,165.326
							L326.577,165.326z"/>
					</g>
					<g>
						<path style="fill:#333C4D;" d="M346.058,165.031c-0.416-0.603-0.799-1.109-1.5-1.41c-0.657-0.282-1.431-0.471-2.141-0.331
							c-0.464,0.091-0.484,0.884,0,0.958c1.164,0.178,2.365,0.346,3.347,1.077C345.936,165.454,346.176,165.203,346.058,165.031
							L346.058,165.031z"/>
					</g>
					<path style="fill:#333C4D;" d="M330.316,168.095c0,0.807-0.654,1.461-1.461,1.461c-0.807,0-1.461-0.654-1.461-1.461
						c0-0.807,0.654-1.461,1.461-1.461C329.661,166.634,330.316,167.288,330.316,168.095z"/>
					<path style="fill:#333C4D;" d="M345.471,168.095c0,0.807-0.654,1.461-1.461,1.461c-0.807,0-1.461-0.654-1.461-1.461
						c0-0.807,0.654-1.461,1.461-1.461C344.817,166.634,345.471,167.288,345.471,168.095z"/>
					<g style="opacity:0.5;">
						<g>
							<path style="fill:#FFAE93;" d="M325.638,172.165c0.01,0,0.01-0.016,0-0.016C325.628,172.149,325.628,172.165,325.638,172.165
								L325.638,172.165z"/>
						</g>
						<g>
							<path style="fill:#FFAE93;" d="M324.709,174.427c0.001-0.008,0.003-0.015,0.004-0.023c0.009-0.028,0.01-0.056,0.004-0.084
								c0-0.019-0.005-0.037-0.014-0.053c-0.009-0.026-0.023-0.048-0.043-0.067c-0.014-0.011-0.028-0.022-0.042-0.033
								c-0.017-0.007-0.034-0.014-0.05-0.021c-0.028-0.009-0.056-0.01-0.084-0.004c-0.019,0-0.037,0.005-0.053,0.014
								c-0.026,0.009-0.048,0.023-0.068,0.043c-0.025,0.027-0.043,0.058-0.054,0.093c-0.009,0.028-0.01,0.056-0.004,0.084
								c0,0.019,0.005,0.037,0.014,0.053c0.009,0.026,0.023,0.048,0.043,0.067c0.014,0.011,0.028,0.022,0.043,0.033
								c0.017,0.007,0.033,0.014,0.05,0.021c0.037,0.01,0.074,0.01,0.111,0c0.008-0.001,0.015-0.003,0.023-0.004
								C324.643,174.536,324.699,174.481,324.709,174.427L324.709,174.427z"/>
						</g>
						<g>
							<path style="fill:#FFAE93;" d="M325.714,171.582c0.62,0,0.621-0.964,0-0.964
								C325.094,170.619,325.093,171.582,325.714,171.582L325.714,171.582z"/>
						</g>
						<g>
							<path style="fill:#FFAE93;" d="M328.316,175.573c0.611,0,0.612-0.949,0-0.949
								C327.706,174.624,327.705,175.573,328.316,175.573L328.316,175.573z"/>
						</g>
						<g>
							<path style="fill:#FFAE93;" d="M331.711,173.626c0.677,0,0.678-1.052,0-1.052
								C331.034,172.573,331.033,173.626,331.711,173.626L331.711,173.626z"/>
						</g>
						<g>
							<path style="fill:#FFAE93;" d="M332.767,171.221c0.063,0.002,0.122-0.011,0.177-0.04c0.057-0.018,0.106-0.05,0.148-0.095
								c0.045-0.042,0.076-0.091,0.095-0.148c0.029-0.055,0.042-0.114,0.04-0.177c-0.005-0.041-0.011-0.081-0.017-0.122
								c-0.022-0.078-0.061-0.146-0.118-0.203c-0.031-0.024-0.062-0.048-0.093-0.072c-0.072-0.042-0.149-0.062-0.232-0.063
								c-0.063-0.002-0.122,0.011-0.177,0.04c-0.057,0.019-0.106,0.05-0.148,0.095c-0.045,0.042-0.076,0.091-0.095,0.148
								c-0.029,0.055-0.042,0.114-0.039,0.177c0.005,0.041,0.011,0.081,0.016,0.122c0.022,0.078,0.061,0.146,0.118,0.203
								c0.031,0.024,0.062,0.048,0.093,0.072C332.607,171.199,332.684,171.22,332.767,171.221L332.767,171.221z"/>
						</g>
						<g>
							<path style="fill:#FFAE93;" d="M330.917,170.143c-0.008,0.002-0.015,0.005-0.023,0.007c-0.022,0.009-0.045,0.019-0.067,0.029
								c-0.033,0.018-0.059,0.042-0.079,0.073c-0.017,0.018-0.029,0.038-0.036,0.062c-0.018,0.034-0.026,0.07-0.024,0.109
								c0.003,0.025,0.007,0.05,0.01,0.075c0.009,0.022,0.019,0.045,0.028,0.067c0.018,0.033,0.042,0.059,0.073,0.079
								c0.027,0.025,0.059,0.042,0.096,0.05c0.008,0.002,0.016,0.005,0.023,0.007c0.095,0.028,0.213,0,0.281-0.074
								c0.052-0.057,0.085-0.126,0.085-0.204c0.001-0.04-0.007-0.077-0.025-0.111c-0.012-0.036-0.031-0.067-0.06-0.093
								C331.127,170.145,331.016,170.114,330.917,170.143L330.917,170.143z"/>
						</g>
						<g>
							<path style="fill:#FFAE93;" d="M334.427,169.933c0.439,0,0.439-0.682,0-0.682
								C333.988,169.251,333.987,169.933,334.427,169.933L334.427,169.933z"/>
						</g>
						<g>
							<path style="fill:#FFAE93;" d="M335.03,172.234c0.439,0,0.44-0.682,0-0.682C334.591,171.552,334.591,172.234,335.03,172.234
								L335.03,172.234z"/>
						</g>
						<g>
							<path style="fill:#FFAE93;" d="M336.011,170.852c0.506,0,0.506-0.786,0-0.786
								C335.505,170.066,335.504,170.852,336.011,170.852L336.011,170.852z"/>
						</g>
						<g>
							<path style="fill:#FFAE93;" d="M339.179,169.322c0.429,0,0.43-0.667,0-0.667C338.75,168.655,338.749,169.322,339.179,169.322
								L339.179,169.322z"/>
						</g>
						<g>
							<path style="fill:#FFAE93;" d="M339.858,171.094c0.477,0,0.478-0.741,0-0.741
								C339.381,170.353,339.38,171.094,339.858,171.094L339.858,171.094z"/>
						</g>
						<g>
							<path style="fill:#FFAE93;" d="M342.159,170.81c0.305,0,0.306-0.474,0-0.474C341.854,170.335,341.853,170.81,342.159,170.81
								L342.159,170.81z"/>
						</g>
						<g>
							<path style="fill:#FFAE93;" d="M341.178,172.933c0.563,0,0.564-0.875,0-0.875
								C340.615,172.059,340.614,172.933,341.178,172.933L341.178,172.933z"/>
						</g>
						<g>
							<path style="fill:#FFAE93;" d="M343.818,173.152c0.064,0.002,0.124-0.011,0.18-0.04c0.058-0.019,0.108-0.051,0.15-0.097
								c0.046-0.042,0.078-0.092,0.096-0.15c0.029-0.056,0.043-0.116,0.04-0.18c-0.005-0.041-0.011-0.083-0.017-0.124
								c-0.022-0.079-0.062-0.148-0.12-0.206c-0.031-0.024-0.063-0.049-0.095-0.073c-0.073-0.042-0.151-0.063-0.236-0.064
								c-0.064-0.002-0.124,0.011-0.18,0.04c-0.058,0.019-0.108,0.051-0.15,0.097c-0.046,0.042-0.078,0.092-0.097,0.15
								c-0.029,0.056-0.043,0.116-0.04,0.18c0.006,0.041,0.011,0.083,0.017,0.124c0.022,0.079,0.062,0.148,0.12,0.206
								c0.031,0.024,0.063,0.049,0.095,0.073C343.656,173.13,343.734,173.151,343.818,173.152L343.818,173.152z"/>
						</g>
						<g>
							<path style="fill:#FFAE93;" d="M346.383,171.286c0.191,0,0.191-0.296,0-0.296
								C346.192,170.99,346.192,171.286,346.383,171.286L346.383,171.286z"/>
						</g>
						<g>
							<path style="fill:#FFAE93;" d="M343.932,171.51c0.041,0.002,0.079-0.007,0.114-0.025c0.037-0.012,0.069-0.032,0.096-0.061
								c0.029-0.027,0.049-0.059,0.061-0.095c0.018-0.035,0.027-0.073,0.026-0.114c-0.004-0.026-0.007-0.053-0.011-0.079
								c-0.014-0.05-0.039-0.094-0.076-0.131c-0.058-0.053-0.129-0.087-0.21-0.087c-0.041-0.002-0.079,0.007-0.114,0.025
								c-0.037,0.012-0.069,0.032-0.095,0.061c-0.029,0.027-0.049,0.059-0.061,0.095c-0.019,0.035-0.027,0.073-0.026,0.114
								c0.004,0.026,0.007,0.053,0.011,0.079c0.014,0.05,0.039,0.094,0.076,0.131C343.78,171.477,343.851,171.51,343.932,171.51
								L343.932,171.51z"/>
						</g>
						<g>
							<path style="fill:#FFAE93;" d="M346.27,174.031c0.324,0,0.325-0.504,0-0.504C345.946,173.527,345.945,174.031,346.27,174.031
								L346.27,174.031z"/>
						</g>
						<g>
							<path style="fill:#FFAE93;" d="M348.948,175.046c0.563,0,0.564-0.875,0-0.875
								C348.385,174.171,348.384,175.046,348.948,175.046L348.948,175.046z"/>
						</g>
						<g>
							<path style="fill:#FFAE93;" d="M343.177,176.01c0.687,0,0.688-1.067,0-1.067C342.49,174.942,342.489,176.01,343.177,176.01
								L343.177,176.01z"/>
						</g>
						<g>
							<path style="fill:#FFAE93;" d="M341.431,173.913c0.001,0.002,0.001,0.004,0.002,0.007c0.013,0.031,0.026,0.062,0.039,0.092
								c0.024,0.045,0.058,0.081,0.1,0.109c0.024,0.024,0.053,0.041,0.085,0.05c0.046,0.024,0.096,0.035,0.149,0.033
								c0.002,0,0.004,0,0.006,0.001c0.053,0.002,0.103-0.009,0.15-0.033c0.048-0.016,0.09-0.042,0.125-0.08
								c0.038-0.035,0.065-0.077,0.08-0.125c0.024-0.046,0.035-0.096,0.033-0.149c-0.005-0.034-0.009-0.069-0.014-0.103
								c-0.019-0.066-0.052-0.123-0.1-0.171c-0.026-0.02-0.052-0.04-0.078-0.061c-0.06-0.035-0.126-0.053-0.196-0.053
								c-0.002,0-0.004,0-0.006,0.001c-0.034,0.005-0.069,0.009-0.103,0.014c-0.05,0.012-0.094,0.035-0.132,0.069
								c-0.029,0.017-0.052,0.04-0.069,0.069c-0.034,0.037-0.057,0.081-0.069,0.132
								C341.415,173.776,341.413,173.849,341.431,173.913L341.431,173.913z"/>
						</g>
						<g>
							<path style="fill:#FFAE93;" d="M328.429,171.27c0.315,0,0.315-0.489,0-0.489C328.115,170.781,328.114,171.27,328.429,171.27
								L328.429,171.27z"/>
						</g>
						<g>
							<path style="fill:#FFAE93;" d="M329.846,172.253c0.006-0.005,0.012-0.009,0.017-0.014c0.027-0.025,0.046-0.055,0.057-0.089
								c0.017-0.033,0.025-0.068,0.024-0.107c-0.003-0.025-0.007-0.049-0.01-0.074c-0.013-0.047-0.037-0.088-0.071-0.122
								c-0.006-0.005-0.012-0.009-0.017-0.014c-0.02-0.015-0.04-0.031-0.06-0.046c-0.024-0.01-0.047-0.02-0.071-0.03
								c-0.039-0.012-0.079-0.014-0.118-0.005c-0.027,0-0.052,0.007-0.075,0.02c-0.025,0.007-0.047,0.02-0.065,0.038
								c-0.022,0.013-0.04,0.031-0.053,0.053c-0.018,0.018-0.031,0.04-0.038,0.065c-0.019,0.035-0.027,0.073-0.026,0.114
								c0.004,0.026,0.007,0.052,0.011,0.079c0.01,0.024,0.02,0.047,0.03,0.071c0.016,0.02,0.031,0.04,0.046,0.06
								c0.02,0.016,0.04,0.031,0.06,0.046c0.024,0.01,0.047,0.02,0.071,0.03c0.039,0.012,0.079,0.014,0.118,0.005
								c0.027,0,0.052-0.007,0.075-0.02C329.787,172.302,329.819,172.282,329.846,172.253L329.846,172.253z"/>
						</g>
						<g>
							<path style="fill:#FFAE93;" d="M326.43,173.319c0.525,0,0.526-0.815,0-0.815C325.906,172.503,325.905,173.319,326.43,173.319
								L326.43,173.319z"/>
						</g>
						<g>
							<path style="fill:#FFAE93;" d="M323.564,171.506c0.668,0,0.669-1.038,0-1.038
								C322.896,170.469,322.895,171.506,323.564,171.506L323.564,171.506z"/>
						</g>
						<g>
							<path style="fill:#FFAE93;" d="M323.79,176.637c0.62,0,0.621-0.964,0-0.964C323.17,175.673,323.169,176.637,323.79,176.637
								L323.79,176.637z"/>
						</g>
						<g>
							<path style="fill:#FFAE93;" d="M328.543,173.478c0.439,0,0.439-0.682,0-0.682
								C328.104,172.796,328.103,173.478,328.543,173.478L328.543,173.478z"/>
						</g>
						<g>
							<path style="fill:#FFAE93;" d="M326.317,175.409c0.496,0,0.497-0.771,0-0.771
								C325.821,174.638,325.82,175.409,326.317,175.409L326.317,175.409z"/>
						</g>
						<g>
							<path style="fill:#FFAE93;" d="M330.466,175c0.601,0,0.602-0.934,0-0.934C329.865,174.066,329.864,175,330.466,175
								L330.466,175z"/>
						</g>
						<g>
							<path style="fill:#FFAE93;" d="M323.375,173.461c0.06,0.002,0.116-0.01,0.169-0.038c0.054-0.018,0.101-0.048,0.141-0.09
								c0.043-0.04,0.073-0.087,0.09-0.141c0.027-0.052,0.04-0.108,0.038-0.169c-0.005-0.039-0.01-0.077-0.016-0.116
								c-0.021-0.074-0.058-0.138-0.112-0.193c-0.029-0.023-0.059-0.046-0.089-0.068c-0.068-0.04-0.142-0.059-0.221-0.06
								c-0.06-0.002-0.116,0.01-0.168,0.038c-0.054,0.018-0.101,0.048-0.141,0.09c-0.043,0.04-0.073,0.087-0.09,0.141
								c-0.027,0.052-0.04,0.108-0.038,0.168c0.005,0.039,0.01,0.077,0.016,0.116c0.021,0.074,0.058,0.138,0.112,0.193
								c0.03,0.023,0.059,0.046,0.089,0.068C323.223,173.441,323.296,173.461,323.375,173.461L323.375,173.461z"/>
						</g>
						<g>
							<path style="fill:#FFAE93;" d="M348.91,171.409c0.591,0,0.592-0.919,0-0.919C348.319,170.49,348.318,171.409,348.91,171.409
								L348.91,171.409z"/>
						</g>
						<g>
							<path style="fill:#FFAE93;" d="M347.741,172.591c0.219,0,0.22-0.341,0-0.341C347.522,172.25,347.521,172.591,347.741,172.591
								L347.741,172.591z"/>
						</g>
						<g>
							<path style="fill:#FFAE93;" d="M347.515,170.663c0.553,0,0.554-0.86,0-0.86C346.962,169.803,346.961,170.663,347.515,170.663
								L347.515,170.663z"/>
						</g>
						<g>
							<path style="fill:#FFAE93;" d="M345.591,172.513c0.41,0,0.411-0.637,0-0.637C345.181,171.876,345.18,172.513,345.591,172.513
								L345.591,172.513z"/>
						</g>
						<g>
							<path style="fill:#FFAE93;" d="M344.497,174.993c0.01,0,0.01-0.016,0-0.016S344.487,174.993,344.497,174.993L344.497,174.993
								z"/>
						</g>
						<g>
							<path style="fill:#FFAE93;" d="M344.686,174.625c0.458,0,0.459-0.712,0-0.712
								C344.228,173.913,344.227,174.625,344.686,174.625L344.686,174.625z"/>
						</g>
						<g>
							<path style="fill:#FFAE93;" d="M346.987,176.256c0.858,0,0.86-1.334,0-1.334
								C346.128,174.922,346.127,176.256,346.987,176.256L346.987,176.256z"/>
						</g>
						<g>
							<path style="fill:#FFAE93;" d="M349.816,173.197c0.611,0,0.612-0.949,0-0.949
								C349.205,172.248,349.204,173.197,349.816,173.197L349.816,173.197z"/>
						</g>
					</g>
					<g>
						<path style="fill:#333C4D;" d="M332.663,179.908c-0.015,0.042-0.03,0.083-0.045,0.125c-0.137,0.382,0.019,0.876,0.304,1.149
							c2.044,1.954,6.453,1.759,8.143-0.516c0.781-1.051-0.678-2.095-1.633-1.633c-1.211,0.586-2.792,0.597-4.102,0.43
							C334.473,179.354,333.084,178.737,332.663,179.908L332.663,179.908z"/>
					</g>
				</g>
			</g>
		</g>
		<g>
			<rect x="182.034" y="118.024" style="fill:#333C4D;" width="7.172" height="132.816"/>
			<rect x="411.045" y="118.024" style="fill:#333C4D;" width="7.172" height="132.816"/>
			<path style="fill:#F26863;" d="M167.153,85.172v27.898c0,8.086,6.555,14.641,14.641,14.641s14.641-6.555,14.641-14.641V85.172
				H167.153z"/>
			<path style="fill:#E89A3D;" d="M195.64,85.172v27.898c0,8.086,6.555,14.641,14.641,14.641s14.641-6.555,14.641-14.641V85.172
				H195.64z"/>
			<path style="fill:#F7D454;" d="M224.126,85.172v27.898c0,8.086,6.555,14.641,14.641,14.641c8.086,0,14.641-6.555,14.641-14.641
				V85.172H224.126z"/>
			<path style="fill:#F26863;" d="M253.541,85.172v27.898c0,8.086,6.555,14.641,14.641,14.641c8.086,0,14.641-6.555,14.641-14.641
				V85.172H253.541z"/>
			<path style="fill:#E89A3D;" d="M282.027,85.172v27.898c0,8.086,6.555,14.641,14.641,14.641c8.086,0,14.641-6.555,14.641-14.641
				V85.172H282.027z"/>
			<path style="fill:#F7D454;" d="M310.513,85.172v27.898c0,8.086,6.555,14.641,14.641,14.641c8.086,0,14.641-6.555,14.641-14.641
				V85.172H310.513z"/>
			<path style="fill:#F26863;" d="M339.929,85.172v27.898c0,8.086,6.555,14.641,14.641,14.641s14.641-6.555,14.641-14.641V85.172
				H339.929z"/>
			<path style="fill:#E89A3D;" d="M368.415,85.172v27.898c0,8.086,6.555,14.641,14.641,14.641c8.086,0,14.641-6.555,14.641-14.641
				V85.172H368.415z"/>
			<path style="fill:#F7D454;" d="M396.901,85.172v27.898c0,8.086,6.555,14.641,14.641,14.641c8.086,0,14.641-6.555,14.641-14.641
				V85.172H396.901z"/>
		</g>
		<path style="fill:#BFD3E2;" d="M195.824,257.767h-49.682c-4.139,0-7.494-3.355-7.494-7.494l0,0h57.176V257.767z"/>
		<g>
			
				<polygon style="fill:none;stroke:#333C4D;stroke-width:0.75;stroke-linecap:round;stroke-linejoin:round;stroke-miterlimit:10;" points="
				143.294,219.914 161.429,219.914 159.039,250.273 145.543,250.273 			"/>
			<polygon style="fill:#E89A3D;" points="145.229,223.153 159.495,223.153 157.615,247.035 146.998,247.035 			"/>
			
				<polyline style="fill:none;stroke:#333C4D;stroke-width:0.75;stroke-linecap:round;stroke-linejoin:round;stroke-miterlimit:10;" points="
				150.079,233.38 145.229,209.063 137.184,211.147 			"/>
			
				<polygon style="fill:none;stroke:#333C4D;stroke-width:0.75;stroke-linecap:round;stroke-linejoin:round;stroke-miterlimit:10;" points="
				158.236,216.333 178.511,216.333 175.839,250.273 160.751,250.273 			"/>
			<polygon style="fill:#F7D454;" points="160.4,219.954 176.348,219.954 174.246,246.652 162.378,246.652 			"/>
			
				<polyline style="fill:none;stroke:#333C4D;stroke-width:0.75;stroke-linecap:round;stroke-linejoin:round;stroke-miterlimit:10;" points="
				165.822,231.387 160.4,204.203 151.406,206.533 			"/>
		</g>
		<g>
			<rect x="181.303" y="250.273" style="fill:#BFD3E2;" width="236.914" height="137.161"/>
			<g>
				<path style="fill:#333C4D;" d="M418.568,343.74c-23.9,0-43.274,19.374-43.274,43.274c0,23.9,19.374,43.274,43.274,43.274
					c23.9,0,43.274-19.374,43.274-43.274C461.842,363.114,442.467,343.74,418.568,343.74z M455.645,401.384
					c-10.784-4.974-21.994-9.135-33.039-13.506c11.889,0.103,23.846,0.422,35.71-0.159
					C458.231,392.531,457.294,397.133,455.645,401.384z M422.418,386.344c11.042-4.601,22.27-8.989,33.034-14.192
					c1.792,4.443,2.804,9.281,2.869,14.35C446.392,385.918,434.37,386.243,422.418,386.344z M454.984,371.039
					c-11.163,4.111-22.066,9.114-32.987,13.842c8.505-8.359,17.204-16.619,25.201-25.449
					C450.433,362.789,453.083,366.711,454.984,371.039z M434.729,423.345c-4.107-11.139-9.099-22.021-13.818-32.92
					c8.328,8.473,16.559,17.138,25.351,25.111C442.929,418.773,439.031,421.429,434.729,423.345z M402.628,350.581
					c3.976,11.265,9.085,22.268,13.851,33.266c-8.43-8.518-16.696-17.395-25.66-25.304
					C394.221,355.226,398.215,352.515,402.628,350.581z M419.281,347.266c4.846,0.086,9.479,1.037,13.754,2.708
					c-5.009,10.837-9.191,22.109-13.585,33.213C419.553,371.227,419.877,359.199,419.281,347.266z M417.916,383.382
					c-4.623-11.106-9.005-22.467-14.37-33.189c4.494-1.835,9.398-2.871,14.538-2.932
					C417.484,359.26,417.815,371.356,417.916,383.382z M416.601,390.251c-4.566,11.08-9.481,22.171-13.265,33.5
					c-4.65-1.93-8.85-4.72-12.413-8.167C399.891,407.66,408.162,398.774,416.601,390.251z M417.932,390.935
					c-0.061,11.916-0.488,23.968,0.238,35.834c-4.893-0.048-9.571-0.981-13.889-2.645
					C409.403,413.374,413.497,402.001,417.932,390.935z M419.432,390.806c4.599,11.036,8.984,22.259,14.182,33.019
					c-4.459,1.825-9.323,2.86-14.42,2.939C419.922,414.856,419.49,402.762,419.432,390.806z M420.803,383.905
					c4.604-11.085,9.412-22.165,13.344-33.487c4.579,1.952,8.713,4.742,12.219,8.171
					C437.496,366.623,429.201,375.364,420.803,383.905z M390.114,359.246c7.948,9.008,16.871,17.31,25.427,25.783
					c-11.139-4.59-22.288-9.534-33.681-13.326C383.812,367.031,386.631,362.815,390.114,359.246z M378.817,387.611
					c11.978,0.747,24.147,0.308,36.176,0.249c-11.1,4.621-22.455,9.001-33.174,14.359
					C379.951,397.708,378.893,392.779,378.817,387.611z M381.496,372.629c10.802,5.161,22.237,9.273,33.362,13.732
					c-11.987-0.061-24.111-0.494-36.045,0.25C378.861,381.682,379.809,376.972,381.496,372.629z M382.22,403.14
					c11.241-3.972,22.222-9.07,33.198-13.827c-8.486,8.399-17.328,16.635-25.215,25.56
					C386.885,411.496,384.169,407.527,382.22,403.14z M447.107,414.691c-8.008-8.83-16.712-17.094-25.22-25.459
					c11.027,4.581,22.05,9.361,33.311,13.282C453.267,407.073,450.503,411.19,447.107,414.691z"/>
			</g>
			<rect x="196.637" y="278.93" style="fill:#FFF7EA;" width="205.383" height="54.124"/>
			<g>
				<g>
					<circle style="fill:#F7D454;" cx="213.137" cy="293.855" r="11.396"/>
					<g>
						<g>
							<path style="fill:#333C4D;" d="M214.712,275.193c-2.124,2.35-2.594,6.06-2.936,9.088c-0.102,0.905,1.448,1.122,1.6,0.217
								c0.256-1.515,0.428-3.042,0.76-4.544c0.328-1.482,0.9-2.872,1.328-4.323C215.589,275.21,215.017,274.856,214.712,275.193
								L214.712,275.193z"/>
						</g>
						<g>
							<path style="fill:#009B56;" d="M231.399,275.823c-0.053-0.072-0.12-0.136-0.22-0.175c-5.633-2.205-12.103,0.743-14.403,6.283
								c-0.16,0.386,0.442,0.597,0.65,0.274c0.054-0.083,0.111-0.161,0.166-0.243c0.018,0.01,0.026,0.025,0.046,0.034
								c5.398,2.519,11.382-0.648,13.997-5.665C231.748,276.112,231.595,275.875,231.399,275.823z"/>
							<g>
								<path style="fill:#333C4D;" d="M214.947,284.194c3.718-3.093,7.677-4.185,12.161-5.689c0.441-0.148,0.263-0.784-0.192-0.694
									c-4.346,0.854-9.442,2.46-12.275,6.078C214.471,284.106,214.73,284.375,214.947,284.194L214.947,284.194z"/>
							</g>
						</g>
					</g>
				</g>
				<g>
					<path style="fill:#E89A3D;" d="M242.309,288.093c3.958,4.894,3.2,12.069-1.694,16.028c-4.894,3.958-12.069,3.2-16.028-1.694
						s-3.2-12.07,1.694-16.028C231.175,282.441,238.351,283.2,242.309,288.093z"/>
					<g>
						<g>
							<path style="fill:#333C4D;" d="M222.937,279.76c-0.174,3.163,1.795,6.343,3.432,8.912c0.489,0.768,1.831-0.038,1.381-0.838
								c-0.754-1.339-1.581-2.634-2.266-4.011c-0.676-1.358-1.106-2.799-1.686-4.196
								C223.629,279.222,222.962,279.307,222.937,279.76L222.937,279.76z"/>
						</g>
						<g>
							<path style="fill:#6FCC7B;" d="M236.307,269.756c-0.086-0.022-0.179-0.03-0.281,0.002c-5.766,1.828-8.943,8.189-7.247,13.943
								c0.118,0.401,0.719,0.186,0.678-0.196c-0.011-0.099-0.015-0.195-0.024-0.293c0.02-0.003,0.036,0.003,0.057-0.002
								c5.781-1.436,8.442-7.662,7.319-13.207C236.76,269.761,236.492,269.673,236.307,269.756z"/>
							<g>
								<path style="fill:#333C4D;" d="M228.78,286.611c0.946-4.743,3.337-8.082,5.878-12.071c0.25-0.393-0.288-0.775-0.586-0.42
									c-2.842,3.398-5.795,7.85-5.722,12.445C228.354,286.842,228.725,286.888,228.78,286.611L228.78,286.611z"/>
							</g>
						</g>
					</g>
				</g>
				<g>
					<circle style="fill:#F7D454;" cx="251.371" cy="293.855" r="11.396"/>
					<g>
						<g>
							<path style="fill:#333C4D;" d="M252.946,275.193c-2.124,2.35-2.594,6.06-2.936,9.088c-0.102,0.905,1.448,1.122,1.6,0.217
								c0.256-1.515,0.428-3.042,0.76-4.544c0.328-1.482,0.9-2.872,1.328-4.323C253.822,275.21,253.25,274.856,252.946,275.193
								L252.946,275.193z"/>
						</g>
						<g>
							<path style="fill:#009B56;" d="M269.632,275.823c-0.053-0.072-0.12-0.136-0.22-0.175c-5.633-2.205-12.103,0.743-14.403,6.283
								c-0.16,0.386,0.442,0.597,0.65,0.274c0.054-0.083,0.111-0.161,0.166-0.243c0.018,0.01,0.026,0.025,0.046,0.034
								c5.398,2.519,11.382-0.648,13.996-5.665C269.982,276.112,269.828,275.875,269.632,275.823z"/>
							<g>
								<path style="fill:#333C4D;" d="M253.18,284.194c3.718-3.093,7.677-4.185,12.161-5.689c0.441-0.148,0.263-0.784-0.191-0.694
									c-4.346,0.854-9.442,2.46-12.276,6.078C252.705,284.106,252.963,284.375,253.18,284.194L253.18,284.194z"/>
							</g>
						</g>
					</g>
				</g>
				<g>
					<path style="fill:#E89A3D;" d="M280.543,288.093c3.958,4.894,3.2,12.069-1.694,16.028c-4.894,3.958-12.069,3.2-16.028-1.694
						s-3.2-12.07,1.694-16.028C269.409,282.441,276.584,283.2,280.543,288.093z"/>
					<g>
						<g>
							<path style="fill:#333C4D;" d="M261.17,279.76c-0.174,3.163,1.795,6.343,3.432,8.912c0.489,0.768,1.831-0.038,1.381-0.838
								c-0.754-1.339-1.581-2.634-2.266-4.011c-0.677-1.358-1.106-2.799-1.686-4.196C261.863,279.222,261.195,279.307,261.17,279.76
								L261.17,279.76z"/>
						</g>
						<g>
							<path style="fill:#6FCC7B;" d="M274.541,269.756c-0.086-0.022-0.179-0.03-0.281,0.002c-5.766,1.828-8.943,8.189-7.247,13.943
								c0.118,0.401,0.719,0.186,0.678-0.196c-0.011-0.099-0.015-0.195-0.024-0.293c0.02-0.003,0.036,0.003,0.057-0.002
								c5.781-1.436,8.442-7.662,7.32-13.207C274.994,269.761,274.725,269.673,274.541,269.756z"/>
							<g>
								<path style="fill:#333C4D;" d="M267.013,286.611c0.946-4.743,3.337-8.082,5.878-12.071c0.25-0.393-0.288-0.775-0.586-0.42
									c-2.842,3.398-5.795,7.85-5.722,12.445C266.588,286.842,266.958,286.888,267.013,286.611L267.013,286.611z"/>
							</g>
						</g>
					</g>
				</g>
				<g>
					<circle style="fill:#F7D454;" cx="289.604" cy="293.855" r="11.396"/>
					<g>
						<g>
							<path style="fill:#333C4D;" d="M291.179,275.193c-2.124,2.35-2.594,6.06-2.936,9.088c-0.102,0.905,1.448,1.122,1.6,0.217
								c0.255-1.515,0.427-3.042,0.76-4.544c0.328-1.482,0.9-2.872,1.328-4.323C292.056,275.21,291.484,274.856,291.179,275.193
								L291.179,275.193z"/>
						</g>
						<g>
							<path style="fill:#009B56;" d="M307.866,275.823c-0.053-0.072-0.12-0.136-0.22-0.175c-5.633-2.205-12.103,0.743-14.403,6.283
								c-0.16,0.386,0.442,0.597,0.65,0.274c0.054-0.083,0.111-0.161,0.166-0.243c0.017,0.01,0.026,0.025,0.046,0.034
								c5.398,2.519,11.382-0.648,13.996-5.665C308.215,276.112,308.062,275.875,307.866,275.823z"/>
							<g>
								<path style="fill:#333C4D;" d="M291.414,284.194c3.718-3.093,7.677-4.185,12.161-5.689c0.442-0.148,0.263-0.784-0.191-0.694
									c-4.346,0.854-9.442,2.46-12.276,6.078C290.938,284.106,291.197,284.375,291.414,284.194L291.414,284.194z"/>
							</g>
						</g>
					</g>
				</g>
				<g>
					
						<ellipse transform="matrix(0.5546 -0.8321 0.8321 0.5546 -107.6513 389.4104)" style="fill:#E89A3D;" cx="309.915" cy="295.26" rx="11.396" ry="11.396"/>
					<g>
						<g>
							<path style="fill:#333C4D;" d="M299.404,279.76c-0.174,3.163,1.794,6.343,3.432,8.912c0.489,0.768,1.831-0.038,1.381-0.838
								c-0.754-1.339-1.581-2.634-2.266-4.011c-0.677-1.358-1.106-2.799-1.686-4.196
								C300.096,279.222,299.429,279.307,299.404,279.76L299.404,279.76z"/>
						</g>
						<g>
							<path style="fill:#6FCC7B;" d="M312.774,269.756c-0.086-0.022-0.179-0.03-0.281,0.002c-5.766,1.828-8.943,8.189-7.247,13.943
								c0.118,0.401,0.719,0.186,0.678-0.196c-0.011-0.099-0.015-0.195-0.024-0.293c0.02-0.003,0.036,0.003,0.057-0.002
								c5.781-1.436,8.442-7.662,7.319-13.207C313.228,269.761,312.959,269.673,312.774,269.756z"/>
							<g>
								<path style="fill:#333C4D;" d="M305.247,286.611c0.946-4.743,3.337-8.082,5.878-12.071c0.25-0.393-0.289-0.775-0.586-0.42
									c-2.842,3.398-5.795,7.85-5.722,12.445C304.822,286.842,305.192,286.888,305.247,286.611L305.247,286.611z"/>
							</g>
						</g>
					</g>
				</g>
				<g>
					<circle style="fill:#F7D454;" cx="327.838" cy="293.855" r="11.396"/>
					<g>
						<g>
							<path style="fill:#333C4D;" d="M329.413,275.193c-2.124,2.35-2.593,6.06-2.936,9.088c-0.102,0.905,1.448,1.122,1.6,0.217
								c0.255-1.515,0.428-3.042,0.76-4.544c0.328-1.482,0.9-2.872,1.328-4.323C330.289,275.21,329.717,274.856,329.413,275.193
								L329.413,275.193z"/>
						</g>
						<g>
							<path style="fill:#009B56;" d="M346.1,275.823c-0.053-0.072-0.12-0.136-0.22-0.175c-5.633-2.205-12.103,0.743-14.403,6.283
								c-0.16,0.386,0.442,0.597,0.65,0.274c0.054-0.083,0.111-0.161,0.166-0.243c0.017,0.01,0.026,0.025,0.046,0.034
								c5.398,2.519,11.382-0.648,13.996-5.665C346.449,276.112,346.295,275.875,346.1,275.823z"/>
							<g>
								<path style="fill:#333C4D;" d="M329.648,284.194c3.718-3.093,7.677-4.185,12.161-5.689c0.441-0.148,0.263-0.784-0.191-0.694
									c-4.346,0.854-9.442,2.46-12.275,6.078C329.172,284.106,329.43,284.375,329.648,284.194L329.648,284.194z"/>
							</g>
						</g>
					</g>
				</g>
				<g>
					
						<ellipse transform="matrix(0.7672 -0.6414 0.6414 0.7672 -108.3332 292.0401)" style="fill:#E89A3D;" cx="348.149" cy="295.26" rx="11.396" ry="11.396"/>
					<g>
						<g>
							<path style="fill:#333C4D;" d="M337.638,279.76c-0.174,3.163,1.794,6.343,3.432,8.912c0.489,0.768,1.831-0.038,1.38-0.838
								c-0.754-1.339-1.58-2.634-2.266-4.011c-0.677-1.358-1.107-2.799-1.686-4.196C338.33,279.222,337.663,279.307,337.638,279.76
								L337.638,279.76z"/>
						</g>
						<g>
							<path style="fill:#6FCC7B;" d="M351.008,269.756c-0.086-0.022-0.179-0.03-0.281,0.002c-5.766,1.828-8.943,8.189-7.247,13.943
								c0.118,0.401,0.719,0.186,0.678-0.196c-0.011-0.099-0.015-0.195-0.024-0.293c0.02-0.003,0.036,0.003,0.057-0.002
								c5.781-1.436,8.442-7.662,7.32-13.207C351.461,269.761,351.192,269.673,351.008,269.756z"/>
							<g>
								<path style="fill:#333C4D;" d="M343.481,286.611c0.946-4.743,3.337-8.082,5.878-12.071c0.25-0.393-0.288-0.775-0.586-0.42
									c-2.842,3.398-5.795,7.85-5.722,12.445C343.055,286.842,343.425,286.888,343.481,286.611L343.481,286.611z"/>
							</g>
						</g>
					</g>
				</g>
				<g>
					<circle style="fill:#F7D454;" cx="366.071" cy="293.855" r="11.396"/>
					<g>
						<g>
							<path style="fill:#333C4D;" d="M367.646,275.193c-2.124,2.35-2.593,6.06-2.936,9.088c-0.102,0.905,1.448,1.122,1.6,0.217
								c0.255-1.515,0.427-3.042,0.76-4.544c0.328-1.482,0.9-2.872,1.328-4.323C368.523,275.21,367.951,274.856,367.646,275.193
								L367.646,275.193z"/>
						</g>
						<g>
							<path style="fill:#009B56;" d="M384.333,275.823c-0.053-0.072-0.12-0.136-0.22-0.175c-5.633-2.205-12.103,0.743-14.403,6.283
								c-0.16,0.386,0.442,0.597,0.65,0.274c0.054-0.083,0.111-0.161,0.166-0.243c0.017,0.01,0.026,0.025,0.046,0.034
								c5.398,2.519,11.382-0.648,13.996-5.665C384.682,276.112,384.529,275.875,384.333,275.823z"/>
							<g>
								<path style="fill:#333C4D;" d="M367.881,284.194c3.718-3.093,7.677-4.185,12.161-5.689c0.441-0.148,0.263-0.784-0.191-0.694
									c-4.346,0.854-9.442,2.46-12.275,6.078C367.405,284.106,367.664,284.375,367.881,284.194L367.881,284.194z"/>
							</g>
						</g>
					</g>
				</g>
				<g>
					<path style="fill:#E89A3D;" d="M395.243,288.093c3.958,4.894,3.2,12.069-1.694,16.028c-4.894,3.958-12.07,3.2-16.028-1.694
						s-3.2-12.07,1.694-16.028C384.109,282.441,391.285,283.2,395.243,288.093z"/>
					<g>
						<g>
							<path style="fill:#333C4D;" d="M375.871,279.76c-0.174,3.163,1.795,6.343,3.432,8.912c0.489,0.768,1.831-0.038,1.38-0.838
								c-0.754-1.339-1.58-2.634-2.266-4.011c-0.677-1.358-1.107-2.799-1.686-4.196C376.563,279.222,375.896,279.307,375.871,279.76
								L375.871,279.76z"/>
						</g>
						<g>
							<path style="fill:#6FCC7B;" d="M389.241,269.756c-0.086-0.022-0.179-0.03-0.281,0.002c-5.766,1.828-8.943,8.189-7.247,13.943
								c0.118,0.401,0.719,0.186,0.678-0.196c-0.011-0.099-0.015-0.195-0.024-0.293c0.02-0.003,0.036,0.003,0.057-0.002
								c5.781-1.436,8.442-7.662,7.319-13.207C389.695,269.761,389.426,269.673,389.241,269.756z"/>
							<g>
								<path style="fill:#333C4D;" d="M381.714,286.611c0.946-4.743,3.337-8.082,5.878-12.071c0.25-0.393-0.289-0.775-0.586-0.42
									c-2.842,3.398-5.795,7.85-5.722,12.445C381.289,286.842,381.659,286.888,381.714,286.611L381.714,286.611z"/>
							</g>
						</g>
					</g>
				</g>
			</g>
			<g>
				<g>
					<path style="fill:#333C4D;" d="M182.489,268.503c19.906,0.753,39.918,0.226,59.837,0.231
						c19.281,0.005,38.562,0.009,57.843,0.017c39.181,0.016,78.516,1.021,117.68-0.149c0.458-0.014,0.459-0.699,0-0.713
						c-39.163-1.17-78.499-0.165-117.68-0.149c-19.281,0.008-38.562,0.012-57.843,0.017c-19.919,0.005-39.931-0.522-59.837,0.231
						C182.158,268,182.157,268.49,182.489,268.503L182.489,268.503z"/>
				</g>
			</g>
			<g>
				<g>
					
						<ellipse transform="matrix(0.925 -0.38 0.38 0.925 -104.7129 104.8303)" style="fill:#E89A3D;" cx="213.137" cy="317.611" rx="11.396" ry="11.396"/>
					<g>
						<g>
							<path style="fill:#333C4D;" d="M214.712,298.95c-2.124,2.35-2.594,6.06-2.936,9.088c-0.102,0.905,1.448,1.122,1.6,0.217
								c0.256-1.515,0.428-3.042,0.76-4.544c0.328-1.482,0.9-2.872,1.328-4.323C215.589,298.967,215.017,298.613,214.712,298.95
								L214.712,298.95z"/>
						</g>
						<g>
							<path style="fill:#009B56;" d="M231.399,299.58c-0.053-0.072-0.12-0.136-0.22-0.175c-5.633-2.205-12.103,0.743-14.403,6.283
								c-0.16,0.386,0.442,0.597,0.65,0.274c0.054-0.083,0.111-0.161,0.166-0.243c0.018,0.01,0.026,0.025,0.046,0.034
								c5.398,2.519,11.382-0.648,13.997-5.665C231.748,299.869,231.595,299.631,231.399,299.58z"/>
							<g>
								<path style="fill:#333C4D;" d="M214.947,307.951c3.718-3.093,7.677-4.185,12.161-5.689c0.441-0.148,0.263-0.784-0.192-0.695
									c-4.346,0.854-9.442,2.46-12.275,6.078C214.471,307.862,214.73,308.131,214.947,307.951L214.947,307.951z"/>
							</g>
						</g>
					</g>
				</g>
				<g>
					
						<ellipse transform="matrix(0.1648 -0.9863 0.9863 0.1648 -119.6714 496.7145)" style="fill:#F7D454;" cx="233.448" cy="319.017" rx="11.396" ry="11.396"/>
					<g>
						<g>
							<path style="fill:#333C4D;" d="M222.937,303.517c-0.174,3.162,1.795,6.343,3.432,8.912c0.489,0.768,1.831-0.038,1.381-0.838
								c-0.754-1.339-1.581-2.634-2.266-4.011c-0.676-1.358-1.106-2.799-1.686-4.196
								C223.629,302.979,222.962,303.064,222.937,303.517L222.937,303.517z"/>
						</g>
						<g>
							<path style="fill:#6FCC7B;" d="M236.307,293.513c-0.086-0.022-0.179-0.03-0.281,0.002c-5.766,1.828-8.943,8.189-7.247,13.943
								c0.118,0.401,0.719,0.186,0.678-0.196c-0.011-0.099-0.015-0.195-0.024-0.293c0.02-0.003,0.036,0.003,0.057-0.002
								c5.781-1.436,8.442-7.662,7.319-13.207C236.76,293.518,236.492,293.43,236.307,293.513z"/>
							<g>
								<path style="fill:#333C4D;" d="M228.78,310.367c0.946-4.743,3.337-8.082,5.878-12.071c0.25-0.393-0.288-0.775-0.586-0.42
									c-2.842,3.398-5.795,7.85-5.722,12.446C228.354,310.598,228.725,310.645,228.78,310.367L228.78,310.367z"/>
							</g>
						</g>
					</g>
				</g>
				<g>
					
						<ellipse transform="matrix(0.2309 -0.973 0.973 0.2309 -115.696 488.8608)" style="fill:#E89A3D;" cx="251.371" cy="317.611" rx="11.396" ry="11.396"/>
					<g>
						<g>
							<path style="fill:#333C4D;" d="M252.946,298.95c-2.124,2.35-2.594,6.06-2.936,9.088c-0.102,0.905,1.448,1.122,1.6,0.217
								c0.256-1.515,0.428-3.042,0.76-4.544c0.328-1.482,0.9-2.872,1.328-4.323C253.822,298.967,253.25,298.613,252.946,298.95
								L252.946,298.95z"/>
						</g>
						<g>
							<path style="fill:#009B56;" d="M269.632,299.58c-0.053-0.072-0.12-0.136-0.22-0.175c-5.633-2.205-12.103,0.743-14.403,6.283
								c-0.16,0.386,0.442,0.597,0.65,0.274c0.054-0.083,0.111-0.161,0.166-0.243c0.018,0.01,0.026,0.025,0.046,0.034
								c5.398,2.519,11.382-0.648,13.996-5.665C269.982,299.869,269.828,299.631,269.632,299.58z"/>
							<g>
								<path style="fill:#333C4D;" d="M253.18,307.951c3.718-3.093,7.677-4.185,12.161-5.689c0.441-0.148,0.263-0.784-0.191-0.695
									c-4.346,0.854-9.442,2.46-12.276,6.078C252.705,307.862,252.963,308.131,253.18,307.951L253.18,307.951z"/>
							</g>
						</g>
					</g>
				</g>
				<g>
					
						<ellipse transform="matrix(0.0697 -0.9976 0.9976 0.0697 -65.487 567.8142)" style="fill:#F7D454;" cx="271.682" cy="319.017" rx="11.396" ry="11.396"/>
					<g>
						<g>
							<path style="fill:#333C4D;" d="M261.17,303.517c-0.174,3.162,1.795,6.343,3.432,8.912c0.489,0.768,1.831-0.038,1.381-0.838
								c-0.754-1.339-1.581-2.634-2.266-4.011c-0.677-1.358-1.106-2.799-1.686-4.196
								C261.863,302.979,261.195,303.064,261.17,303.517L261.17,303.517z"/>
						</g>
						<g>
							<path style="fill:#6FCC7B;" d="M274.541,293.513c-0.086-0.022-0.179-0.03-0.281,0.002c-5.766,1.828-8.943,8.189-7.247,13.943
								c0.118,0.401,0.719,0.186,0.678-0.196c-0.011-0.099-0.015-0.195-0.024-0.293c0.02-0.003,0.036,0.003,0.057-0.002
								c5.781-1.436,8.442-7.662,7.32-13.207C274.994,293.518,274.725,293.43,274.541,293.513z"/>
							<g>
								<path style="fill:#333C4D;" d="M267.013,310.367c0.946-4.743,3.337-8.082,5.878-12.071c0.25-0.393-0.288-0.775-0.586-0.42
									c-2.842,3.398-5.795,7.85-5.722,12.446C266.588,310.598,266.958,310.645,267.013,310.367L267.013,310.367z"/>
							</g>
						</g>
					</g>
				</g>
				<g>
					
						<ellipse transform="matrix(0.2309 -0.973 0.973 0.2309 -86.2897 526.0614)" style="fill:#E89A3D;" cx="289.604" cy="317.611" rx="11.396" ry="11.396"/>
					<g>
						<g>
							<path style="fill:#333C4D;" d="M291.179,298.95c-2.124,2.35-2.594,6.06-2.936,9.088c-0.102,0.905,1.448,1.122,1.6,0.217
								c0.255-1.515,0.427-3.042,0.76-4.544c0.328-1.482,0.9-2.872,1.328-4.323C292.056,298.967,291.484,298.613,291.179,298.95
								L291.179,298.95z"/>
						</g>
						<g>
							<path style="fill:#009B56;" d="M307.866,299.58c-0.053-0.072-0.12-0.136-0.22-0.175c-5.633-2.205-12.103,0.743-14.403,6.283
								c-0.16,0.386,0.442,0.597,0.65,0.274c0.054-0.083,0.111-0.161,0.166-0.243c0.017,0.01,0.026,0.025,0.046,0.034
								c5.398,2.519,11.382-0.648,13.996-5.665C308.215,299.869,308.062,299.631,307.866,299.58z"/>
							<g>
								<path style="fill:#333C4D;" d="M291.414,307.951c3.718-3.093,7.677-4.185,12.161-5.689c0.442-0.148,0.263-0.784-0.191-0.695
									c-4.346,0.854-9.442,2.46-12.276,6.078C290.938,307.862,291.197,308.131,291.414,307.951L291.414,307.951z"/>
							</g>
						</g>
					</g>
				</g>
				<g>
					<path style="fill:#F7D454;" d="M318.776,311.85c3.958,4.894,3.2,12.069-1.694,16.028c-4.894,3.958-12.07,3.2-16.028-1.694
						c-3.958-4.894-3.2-12.07,1.694-16.028C307.642,306.198,314.818,306.956,318.776,311.85z"/>
					<g>
						<g>
							<path style="fill:#333C4D;" d="M299.404,303.517c-0.174,3.162,1.794,6.343,3.432,8.912c0.489,0.768,1.831-0.038,1.381-0.838
								c-0.754-1.339-1.581-2.634-2.266-4.011c-0.677-1.358-1.106-2.799-1.686-4.196
								C300.096,302.979,299.429,303.064,299.404,303.517L299.404,303.517z"/>
						</g>
						<g>
							<path style="fill:#6FCC7B;" d="M312.774,293.513c-0.086-0.022-0.179-0.03-0.281,0.002c-5.766,1.828-8.943,8.189-7.247,13.943
								c0.118,0.401,0.719,0.186,0.678-0.196c-0.011-0.099-0.015-0.195-0.024-0.293c0.02-0.003,0.036,0.003,0.057-0.002
								c5.781-1.436,8.442-7.662,7.319-13.207C313.228,293.518,312.959,293.43,312.774,293.513z"/>
							<g>
								<path style="fill:#333C4D;" d="M305.247,310.367c0.946-4.743,3.337-8.082,5.878-12.071c0.25-0.393-0.289-0.775-0.586-0.42
									c-2.842,3.398-5.795,7.85-5.722,12.446C304.822,310.598,305.192,310.645,305.247,310.367L305.247,310.367z"/>
							</g>
						</g>
					</g>
				</g>
				<g>
					
						<ellipse transform="matrix(0.7071 -0.7071 0.7071 0.7071 -128.5637 324.8427)" style="fill:#E89A3D;" cx="327.838" cy="317.611" rx="11.396" ry="11.396"/>
					<g>
						<g>
							<path style="fill:#333C4D;" d="M329.413,298.95c-2.124,2.35-2.593,6.06-2.936,9.088c-0.102,0.905,1.448,1.122,1.6,0.217
								c0.255-1.515,0.428-3.042,0.76-4.544c0.328-1.482,0.9-2.872,1.328-4.323C330.289,298.967,329.717,298.613,329.413,298.95
								L329.413,298.95z"/>
						</g>
						<g>
							<path style="fill:#009B56;" d="M346.1,299.58c-0.053-0.072-0.12-0.136-0.22-0.175c-5.633-2.205-12.103,0.743-14.403,6.283
								c-0.16,0.386,0.442,0.597,0.65,0.274c0.054-0.083,0.111-0.161,0.166-0.243c0.017,0.01,0.026,0.025,0.046,0.034
								c5.398,2.519,11.382-0.648,13.996-5.665C346.449,299.869,346.295,299.631,346.1,299.58z"/>
							<g>
								<path style="fill:#333C4D;" d="M329.648,307.951c3.718-3.093,7.677-4.185,12.161-5.689c0.441-0.148,0.263-0.784-0.191-0.695
									c-4.346,0.854-9.442,2.46-12.275,6.078C329.172,307.862,329.43,308.131,329.648,307.951L329.648,307.951z"/>
							</g>
						</g>
					</g>
				</g>
				<g>
					<path style="fill:#F7D454;" d="M357.01,311.85c3.958,4.894,3.2,12.069-1.694,16.028c-4.894,3.958-12.07,3.2-16.028-1.694
						c-3.958-4.894-3.2-12.07,1.694-16.028C345.876,306.198,353.052,306.956,357.01,311.85z"/>
					<g>
						<g>
							<path style="fill:#333C4D;" d="M337.638,303.517c-0.174,3.162,1.794,6.343,3.432,8.912c0.489,0.768,1.831-0.038,1.38-0.838
								c-0.754-1.339-1.58-2.634-2.266-4.011c-0.677-1.358-1.107-2.799-1.686-4.196C338.33,302.979,337.663,303.064,337.638,303.517
								L337.638,303.517z"/>
						</g>
						<g>
							<path style="fill:#6FCC7B;" d="M351.008,293.513c-0.086-0.022-0.179-0.03-0.281,0.002c-5.766,1.828-8.943,8.189-7.247,13.943
								c0.118,0.401,0.719,0.186,0.678-0.196c-0.011-0.099-0.015-0.195-0.024-0.293c0.02-0.003,0.036,0.003,0.057-0.002
								c5.781-1.436,8.442-7.662,7.32-13.207C351.461,293.518,351.192,293.43,351.008,293.513z"/>
							<g>
								<path style="fill:#333C4D;" d="M343.481,310.367c0.946-4.743,3.337-8.082,5.878-12.071c0.25-0.393-0.288-0.775-0.586-0.42
									c-2.842,3.398-5.795,7.85-5.722,12.446C343.055,310.598,343.425,310.645,343.481,310.367L343.481,310.367z"/>
							</g>
						</g>
					</g>
				</g>
				<g>
					
						<ellipse transform="matrix(0.925 -0.38 0.38 0.925 -93.2384 162.9511)" style="fill:#E89A3D;" cx="366.071" cy="317.611" rx="11.396" ry="11.396"/>
					<g>
						<g>
							<path style="fill:#333C4D;" d="M367.646,298.95c-2.124,2.35-2.593,6.06-2.936,9.088c-0.102,0.905,1.448,1.122,1.6,0.217
								c0.255-1.515,0.427-3.042,0.76-4.544c0.328-1.482,0.9-2.872,1.328-4.323C368.523,298.967,367.951,298.613,367.646,298.95
								L367.646,298.95z"/>
						</g>
						<g>
							<path style="fill:#009B56;" d="M384.333,299.58c-0.053-0.072-0.12-0.136-0.22-0.175c-5.633-2.205-12.103,0.743-14.403,6.283
								c-0.16,0.386,0.442,0.597,0.65,0.274c0.054-0.083,0.111-0.161,0.166-0.243c0.017,0.01,0.026,0.025,0.046,0.034
								c5.398,2.519,11.382-0.648,13.996-5.665C384.682,299.869,384.529,299.631,384.333,299.58z"/>
							<g>
								<path style="fill:#333C4D;" d="M367.881,307.951c3.718-3.093,7.677-4.185,12.161-5.689c0.441-0.148,0.263-0.784-0.191-0.695
									c-4.346,0.854-9.442,2.46-12.275,6.078C367.405,307.862,367.664,308.131,367.881,307.951L367.881,307.951z"/>
							</g>
						</g>
					</g>
				</g>
				<g>
					
						<ellipse transform="matrix(0.8495 -0.5276 0.5276 0.8495 -110.157 251.8473)" style="fill:#F7D454;" cx="386.383" cy="319.017" rx="11.396" ry="11.396"/>
					<g>
						<g>
							<path style="fill:#333C4D;" d="M375.871,303.517c-0.174,3.162,1.795,6.343,3.432,8.912c0.489,0.768,1.831-0.038,1.38-0.838
								c-0.754-1.339-1.58-2.634-2.266-4.011c-0.677-1.358-1.107-2.799-1.686-4.196
								C376.563,302.979,375.896,303.064,375.871,303.517L375.871,303.517z"/>
						</g>
						<g>
							<path style="fill:#6FCC7B;" d="M389.241,293.513c-0.086-0.022-0.179-0.03-0.281,0.002c-5.766,1.828-8.943,8.189-7.247,13.943
								c0.118,0.401,0.719,0.186,0.678-0.196c-0.011-0.099-0.015-0.195-0.024-0.293c0.02-0.003,0.036,0.003,0.057-0.002
								c5.781-1.436,8.442-7.662,7.319-13.207C389.695,293.518,389.426,293.43,389.241,293.513z"/>
							<g>
								<path style="fill:#333C4D;" d="M381.714,310.367c0.946-4.743,3.337-8.082,5.878-12.071c0.25-0.393-0.289-0.775-0.586-0.42
									c-2.842,3.398-5.795,7.85-5.722,12.446C381.289,310.598,381.659,310.645,381.714,310.367L381.714,310.367z"/>
							</g>
						</g>
					</g>
				</g>
			</g>
			<g>
				<path style="fill:#333C4D;" d="M181.303,314.138c-32.074,0-58.074,26.001-58.074,58.074c0,32.074,26.001,58.075,58.074,58.075
					c32.074,0,58.075-26.001,58.075-58.075C239.378,340.139,213.377,314.138,181.303,314.138z M231.062,391.498
					c-14.472-6.675-29.517-12.259-44.34-18.125c15.955,0.138,32.002,0.567,47.923-0.213
					C234.533,379.618,233.274,385.794,231.062,391.498z M186.47,371.315c14.819-6.174,29.887-12.063,44.333-19.046
					c2.405,5.962,3.764,12.455,3.85,19.258C218.644,370.742,202.51,371.179,186.47,371.315z M230.174,350.774
					c-14.98,5.517-29.613,12.231-44.269,18.577c11.414-11.218,23.088-22.303,33.821-34.153
					C224.067,339.703,227.623,344.966,230.174,350.774z M202.992,420.971c-5.511-14.949-12.21-29.553-18.543-44.18
					c11.176,11.371,22.222,22.999,34.022,33.699C213.997,414.835,208.766,418.399,202.992,420.971z M159.912,323.32
					c5.335,15.117,12.192,29.884,18.588,44.643c-11.313-11.432-22.407-23.345-34.437-33.959
					C148.63,329.553,153.989,325.915,159.912,323.32z M182.26,318.871c6.504,0.115,12.721,1.392,18.458,3.634
					c-6.722,14.544-12.334,29.67-18.231,44.573C182.625,351.027,183.06,334.885,182.26,318.871z M180.428,367.339
					c-6.204-14.905-12.085-30.152-19.285-44.541c6.031-2.463,12.612-3.853,19.51-3.935
					C179.849,334.967,180.292,351.2,180.428,367.339z M178.664,376.558c-6.128,14.87-12.723,29.754-17.802,44.958
					c-6.241-2.59-11.878-6.334-16.658-10.961C156.238,399.921,167.338,387.995,178.664,376.558z M180.45,377.476
					c-0.082,15.991-0.655,32.165,0.319,48.09c-6.566-0.065-12.845-1.317-18.639-3.549
					C169.004,407.589,174.498,392.326,180.45,377.476z M182.462,377.302c6.172,14.811,12.057,29.872,19.033,44.312
					c-5.984,2.449-12.511,3.838-19.352,3.944C183.121,409.578,182.541,393.348,182.462,377.302z M184.303,368.042
					c6.179-14.876,12.631-29.746,17.907-44.94c6.145,2.62,11.693,6.363,16.398,10.966
					C206.705,344.848,195.574,356.579,184.303,368.042z M143.117,334.949c10.666,12.089,22.642,23.231,34.124,34.601
					c-14.949-6.16-29.911-12.795-45.2-17.884C134.659,345.396,138.444,339.737,143.117,334.949z M127.957,373.014
					c16.075,1.002,32.405,0.413,48.549,0.334c-14.896,6.202-30.135,12.08-44.52,19.271
					C129.478,386.566,128.059,379.951,127.957,373.014z M131.551,352.908c14.496,6.925,29.843,12.444,44.772,18.428
					c-16.086-0.082-32.358-0.663-48.374,0.335C128.016,365.059,129.288,358.737,131.551,352.908z M132.524,393.855
					c15.086-5.331,29.823-12.173,44.553-18.556c-11.389,11.271-23.254,22.324-33.839,34.303
					C138.784,405.069,135.14,399.743,132.524,393.855z M219.603,409.356c-10.747-11.851-22.428-22.941-33.845-34.167
					c14.799,6.147,29.592,12.563,44.705,17.824C227.871,399.132,224.161,404.658,219.603,409.356z"/>
			</g>
		</g>
		<g>
			<g>
				<path style="fill:#F7D454;" d="M252.853,195.506c1.482-0.142,3.009-0.195,4.427,0.259c1.418,0.454,2.721,1.504,3.118,2.939
					c0.433,1.566-0.259,3.191-0.767,4.735c-0.508,1.544-0.775,3.422,0.3,4.64c0.398,0.45,0.936,0.75,1.383,1.15
					c0.956,0.854,1.442,2.103,1.895,3.302c0.339,0.896,0.681,1.808,0.748,2.764c0.096,1.352-0.363,2.675-0.815,3.953
					c-0.474,1.339-1.03,2.781-2.245,3.516c-1.171,0.708-2.759,0.54-3.86-0.272c-0.766-0.565-1.337-1.527-1.112-2.452
					c0.171-0.704,0.747-1.222,1.184-1.8c1.23-1.627,1.36-4.008,0.313-5.759c-1.045-1.748-3.151-2.976-3.338-5.004
					c-0.182-1.971,1.611-3.835,1.104-5.749c-0.349-1.319-1.721-2.143-3.07-2.35c-1.164-0.178-7.053,1.177-5.997-1.353
					C247.043,195.812,250.91,195.691,252.853,195.506z"/>
				
					<polygon style="fill:none;stroke:#333C4D;stroke-width:0.75;stroke-linecap:round;stroke-linejoin:round;stroke-miterlimit:10;" points="
					250.254,216.333 270.529,216.333 267.857,250.273 252.769,250.273 				"/>
				<polygon style="fill:#F7D454;" points="252.417,219.954 268.366,219.954 266.264,246.652 254.395,246.652 				"/>
			</g>
			<g>
				<path style="fill:#F26863;" d="M215.901,250.273c0,0,0.993-14.104,13.555-14.104c12.561,0,13.555,14.104,13.555,14.104H215.901z
					"/>
				<g>
					<g>
						<path style="fill:#333C4D;" d="M229.101,235.799c-5.972,1.798-10.285,7.231-10.103,13.569c0.011,0.373,0.54,0.362,0.572,0
							c0.54-6.096,3.839-10.918,9.688-12.999C229.612,236.243,229.47,235.688,229.101,235.799L229.101,235.799z"/>
					</g>
				</g>
				<g>
					<g>
						<path style="fill:#333C4D;" d="M229.36,235.949c-3.993,3.029-4.664,8.128-4.574,12.861c0.01,0.518,0.758,0.506,0.797,0
							c0.354-4.549,0.375-9.22,4.004-12.567C229.741,236.102,229.532,235.818,229.36,235.949L229.36,235.949z"/>
					</g>
				</g>
				<g>
					<g>
						<path style="fill:#333C4D;" d="M229.89,236.369c5.848,2.081,9.148,6.903,9.688,12.999c0.032,0.362,0.561,0.374,0.572,0
							c0.183-6.337-4.13-11.771-10.103-13.569C229.679,235.689,229.536,236.243,229.89,236.369L229.89,236.369z"/>
					</g>
				</g>
				<g>
					<g>
						<path style="fill:#333C4D;" d="M229.561,236.243c3.618,3.338,3.651,8.022,4.004,12.567c0.039,0.506,0.787,0.519,0.797,0
							c0.09-4.732-0.581-9.833-4.574-12.861C229.618,235.82,229.406,236.101,229.561,236.243L229.561,236.243z"/>
					</g>
				</g>
				<g>
					<path style="fill:#E89A3D;" d="M217.858,234.899c0,0-5.932-8.806,1.865-13.582c7.797-4.776,12.903,4.536,12.903,4.536
						L217.858,234.899z"/>
					<path style="fill:#F7D454;" d="M232.626,225.853c0.795,1.299-1.866,4.376-5.943,6.874c-4.078,2.498-8.029,3.47-8.824,2.172
						c-0.796-1.299,1.865-4.376,5.943-6.874C227.88,225.527,231.83,224.555,232.626,225.853z"/>
					<path style="fill:#E89A3D;" d="M232.008,225.95c-1.988,1.533-4.125,2.861-6.285,4.161c0.91-1.386,1.803-2.784,2.781-4.12
						c0.048-0.066-0.04-0.156-0.096-0.09c-1.13,1.323-2.17,2.752-3.183,4.204c-0.429-0.72-0.894-1.413-1.409-1.99
						c-0.047-0.053-0.145,0.007-0.119,0.073c0.29,0.747,0.714,1.502,1.179,2.235c-1.908,0.437-3.805,0.916-5.658,1.493
						c-0.114,0.036-0.063,0.198,0.051,0.176c1.664-0.328,3.319-0.706,4.974-1.09c-2.13,1.276-4.257,2.561-6.262,4.023
						c-0.082,0.06-0.005,0.19,0.083,0.136c2.202-1.351,4.295-2.873,6.492-4.232c0.039-0.009,0.078-0.018,0.117-0.027
						c-0.888,1.291-1.764,2.589-2.662,3.84c-0.092,0.128,0.074,0.299,0.185,0.173c1.108-1.257,2.072-2.621,3-4.011
						c0.366,0.552,0.741,1.092,1.09,1.595c0.084,0.122,0.266,0.011,0.196-0.12c-0.287-0.535-0.596-1.11-0.918-1.683
						c1.898-0.444,3.796-0.887,5.705-1.275c0.23-0.047,0.128-0.4-0.101-0.351c-1.81,0.383-3.639,0.759-5.462,1.165
						c2.203-1.278,4.469-2.408,6.461-4.026C232.315,226.089,232.164,225.829,232.008,225.95z"/>
				</g>
				<g>
					<path style="fill:#E89A3D;" d="M243.388,213.223c0,0-7.827,9.59-15.786,2.499c-7.959-7.091,0.712-15.929,0.712-15.929
						L243.388,213.223z"/>
					<path style="fill:#F7D454;" d="M228.313,199.792c1.181-1.326,5.513,0.606,9.676,4.315c4.163,3.709,6.58,7.79,5.399,9.115
						c-1.181,1.326-5.513-0.606-9.676-4.315C229.549,205.199,227.132,201.118,228.313,199.792z"/>
					<path style="fill:#E89A3D;" d="M228.63,200.449c2.381,1.702,4.583,3.639,6.763,5.611c-1.854-0.548-3.715-1.074-5.535-1.715
						c-0.09-0.032-0.16,0.097-0.068,0.137c1.857,0.815,3.803,1.494,5.764,2.135c-0.658,0.722-1.276,1.474-1.746,2.243
						c-0.043,0.07,0.057,0.159,0.122,0.109c0.736-0.576,1.436-1.303,2.097-2.069c1.132,1.982,2.305,3.938,3.574,5.811
						c0.078,0.115,0.243,0.004,0.179-0.116c-0.927-1.746-1.907-3.466-2.894-5.183c2.142,1.947,4.294,3.887,6.602,5.631
						c0.094,0.071,0.214-0.058,0.124-0.139c-2.251-2.002-4.655-3.825-6.912-5.818c-0.023-0.04-0.046-0.081-0.069-0.121
						c1.74,0.556,3.484,1.096,5.183,1.676c0.173,0.059,0.309-0.183,0.131-0.265c-1.777-0.813-3.623-1.428-5.487-1.995
						c0.493-0.595,0.969-1.195,1.412-1.755c0.107-0.135-0.078-0.3-0.2-0.178c-0.501,0.501-1.038,1.039-1.568,1.592
						c-1.135-1.968-2.27-3.937-3.346-5.937c-0.13-0.242-0.49-0.008-0.358,0.231c1.037,1.891,2.074,3.805,3.141,5.702
						c-2.169-2.028-4.194-4.176-6.671-5.853C228.681,200.059,228.442,200.315,228.63,200.449z"/>
				</g>
				
					<rect x="213.03" y="187.876" style="fill:none;stroke:#333C4D;stroke-width:0.75;stroke-linecap:round;stroke-linejoin:round;stroke-miterlimit:10;" width="33.905" height="62.398"/>
				<g>
					<rect x="219.087" y="163.891" style="fill:#333C4D;" width="21.793" height="28.414"/>
					<path style="fill:#67B7E8;" d="M244.525,165.654h-27.882c-0.969,0-1.763-0.793-1.763-1.763l0,0
						c0-0.969,0.793-1.763,1.763-1.763h27.882c0.969,0,1.763,0.793,1.763,1.763l0,0
						C246.287,164.861,245.494,165.654,244.525,165.654z"/>
					<polygon style="fill:#67B7E8;" points="251.173,197.593 251.173,185.693 209.923,185.693 209.923,201.155 251.173,201.155 
						255.328,197.593 					"/>
				</g>
			</g>
		</g>
	</g>
	<g>
		<path style="fill:#E89A3D;" d="M316.402,500c-1.998-7.617-3.92-15.778,1.59-22.27c3.922-4.622,9.808-4.976,15.48-4.468
			c4.707,0.422,7.317,1.984,9.754,5.041c0.052-6.319,4.649-12.367,10.341-14.975c6.075-2.784,12.797-1.701,17.928,2.094
			c-1.31-11.251,1.287-24.238,13.106-28.195c11.833-3.962,25.603-0.546,34.324,8.217c1.046-4.867,3.957-9.807,8.248-11.888
			c3.022-1.465,7.749-2.013,11.508-0.91c-7.912-11.409-11.568-31.145,4.129-36.658c11.438-4.018,26.355,2.853,35.168,12.591
			c0.533-6.966,5.843-14.105,12.386-15.539c3.459-0.758,6.699-0.406,9.636,0.712V500H316.402z"/>
		<g>
			<g>
				<path style="fill:#F7D454;" d="M394.799,448.898c1.211,2.965,1.017,6.136-0.229,8.831c-2.776-1.051-5.136-3.18-6.347-6.145
					c-1.211-2.965-1.017-6.136,0.229-8.831C391.229,443.805,393.588,445.933,394.799,448.898z"/>
				<path style="fill:#F7D454;" d="M388.361,455.874c2.105,0.085,3.95,1.067,5.222,2.549c-1.387,1.374-3.305,2.205-5.41,2.12
					c-2.105-0.085-3.95-1.067-5.222-2.549C384.338,456.62,386.256,455.789,388.361,455.874z"/>
				<path style="fill:#F7D454;" d="M467.073,416.74c-3.073,0.903-6.208,0.387-8.762-1.126c1.328-2.655,3.685-4.786,6.758-5.689
					c3.073-0.903,6.208-0.388,8.762,1.126C472.503,413.706,470.146,415.837,467.073,416.74z"/>
				<path style="fill:#F7D454;" d="M460.787,409.626c-0.298,2.086-1.463,3.821-3.067,4.936c-1.226-1.52-1.857-3.512-1.559-5.598
					c0.299-2.085,1.464-3.821,3.067-4.935C460.455,405.548,461.086,407.54,460.787,409.626z"/>
				<path style="fill:#F7D454;" d="M471.716,481.332c-1.579-2.787-1.789-5.957-0.896-8.788c2.887,0.69,5.498,2.5,7.077,5.287
					c1.579,2.787,1.789,5.957,0.896,8.788C475.905,485.93,473.294,484.119,471.716,481.332z"/>
				<path style="fill:#F7D454;" d="M477.214,473.593c-2.099,0.183-4.053-0.556-5.504-1.864c1.201-1.54,2.998-2.607,5.096-2.791
					c2.099-0.184,4.053,0.556,5.503,1.864C481.109,472.342,479.313,473.41,477.214,473.593z"/>
				<path style="fill:#F7D454;" d="M320.841,490.562c-1.579-2.787-1.789-5.957-0.896-8.788c2.887,0.69,5.498,2.5,7.077,5.287
					c1.579,2.787,1.789,5.957,0.896,8.788C325.031,495.159,322.42,493.349,320.841,490.562z"/>
				<path style="fill:#F7D454;" d="M326.339,482.823c-2.099,0.184-4.053-0.556-5.504-1.864c1.201-1.539,2.998-2.607,5.096-2.791
					c2.099-0.184,4.053,0.556,5.503,1.864C330.235,481.572,328.438,482.64,326.339,482.823z"/>
				<path style="fill:#F7D454;" d="M497.44,431.306c1.229,2.958,1.054,6.13-0.176,8.832c-2.783-1.035-5.155-3.149-6.384-6.106
					c-1.229-2.958-1.053-6.13,0.177-8.832C493.839,426.235,496.211,428.349,497.44,431.306z"/>
				<path style="fill:#F7D454;" d="M491.043,438.321c2.105,0.072,3.956,1.044,5.237,2.517c-1.379,1.383-3.292,2.225-5.397,2.152
					c-2.105-0.072-3.956-1.044-5.237-2.517C487.025,439.091,488.938,438.249,491.043,438.321z"/>
				<path style="fill:#F7D454;" d="M438.858,445.464c2.105,0.073,3.956,1.044,5.237,2.518c-1.379,1.382-3.292,2.225-5.397,2.152
					c-2.105-0.072-3.956-1.044-5.237-2.517C434.84,446.234,436.753,445.392,438.858,445.464z"/>
				<path style="fill:#F7D454;" d="M361.267,471.368c1.06,1.821,1.223,3.904,0.657,5.773c-1.905-0.431-3.636-1.602-4.695-3.423
					c-1.06-1.821-1.223-3.904-0.657-5.773C358.476,468.377,360.208,469.548,361.267,471.368z"/>
				<path style="fill:#F7D454;" d="M492.347,406.703c1.06,1.821,1.223,3.904,0.657,5.773c-1.904-0.431-3.636-1.602-4.695-3.423
					c-1.06-1.821-1.223-3.904-0.657-5.773C489.556,403.712,491.288,404.882,492.347,406.703z"/>
				<path style="fill:#F7D454;" d="M416.431,466.771c1.06,1.821,1.223,3.904,0.657,5.773c-1.905-0.431-3.636-1.602-4.695-3.423
					c-1.06-1.821-1.223-3.904-0.657-5.773C413.64,463.779,415.371,464.95,416.431,466.771z"/>
				<path style="fill:#F7D454;" d="M435.48,480.564c1.06,1.821,1.223,3.904,0.657,5.773c-1.904-0.431-3.636-1.602-4.695-3.423
					c-1.06-1.821-1.223-3.904-0.657-5.773C432.69,477.573,434.421,478.744,435.48,480.564z"/>
				<path style="fill:#F7D454;" d="M485.332,454.942c2.106,0,3.989,0.907,5.32,2.336c-1.331,1.429-3.214,2.336-5.32,2.336
					c-2.107,0-3.99-0.907-5.32-2.336C481.342,455.849,483.225,454.942,485.332,454.942z"/>
				<path style="fill:#F7D454;" d="M447.236,425.463c2.107,0,3.989,0.907,5.32,2.336c-1.331,1.429-3.213,2.336-5.32,2.336
					s-3.989-0.907-5.32-2.336C443.246,426.37,445.129,425.463,447.236,425.463z"/>
				<path style="fill:#F7D454;" d="M490.988,488.171c0-2.107,0.907-3.989,2.336-5.32c1.429,1.331,2.336,3.214,2.336,5.32
					s-0.907,3.989-2.336,5.32C491.896,492.161,490.988,490.278,490.988,488.171z"/>
				<path style="fill:#F7D454;" d="M401.782,489.833c-1.068,1.816-2.804,2.979-4.71,3.402c-0.557-1.872-0.385-3.954,0.683-5.77
					c1.068-1.816,2.804-2.979,4.71-3.402C403.022,485.934,402.85,488.017,401.782,489.833z"/>
				<path style="fill:#F7D454;" d="M411.568,454.136c-1.068,1.816-2.804,2.979-4.711,3.402c-0.557-1.871-0.385-3.954,0.683-5.77
					c1.068-1.816,2.804-2.979,4.711-3.402C412.808,450.238,412.636,452.32,411.568,454.136z"/>
				<path style="fill:#F7D454;" d="M375.102,484.685c-0.285,2.087-1.438,3.83-3.034,4.955c-1.236-1.512-1.88-3.5-1.595-5.587
					c0.285-2.087,1.438-3.83,3.034-4.955C374.742,480.61,375.386,482.598,375.102,484.685z"/>
				<path style="fill:#F7D454;" d="M453.314,463.475c-1.068,1.816-2.804,2.979-4.711,3.402c-0.557-1.871-0.385-3.954,0.683-5.77
					c1.068-1.816,2.804-2.979,4.71-3.402C454.554,459.576,454.382,461.659,453.314,463.475z"/>
				<path style="fill:#F7D454;" d="M443.233,411.464c-1.068,1.816-2.804,2.979-4.71,3.402c-0.557-1.871-0.385-3.954,0.683-5.77
					c1.068-1.816,2.804-2.979,4.71-3.402C444.473,407.565,444.3,409.648,443.233,411.464z"/>
				<path style="fill:#F7D454;" d="M467.209,439.244c0.695,1.989,0.459,4.065-0.451,5.793c-1.788-0.785-3.265-2.263-3.96-4.252
					c-0.695-1.989-0.459-4.066,0.451-5.793C465.037,435.777,466.515,437.255,467.209,439.244z"/>
				<path style="fill:#F7D454;" d="M458.14,487.879c0.695,1.989,0.459,4.065-0.451,5.793c-1.788-0.785-3.265-2.263-3.96-4.252
					c-0.695-1.989-0.459-4.065,0.451-5.793C455.968,484.412,457.445,485.89,458.14,487.879z"/>
				<path style="fill:#F7D454;" d="M349.495,490.037c-1.251,1.695-3.1,2.67-5.04,2.892c-0.359-1.919,0.03-3.973,1.281-5.667
					c1.252-1.695,3.1-2.67,5.04-2.892C351.135,486.289,350.747,488.342,349.495,490.037z"/>
			</g>
		</g>
	</g>
	<g>
		<g>
			<path style="fill:#333C4D;" d="M81.061,424.725l1.879,25.855c0,0-6.122,12.927-12.678,15.135c-6.555,2.207-4.65,8.198-4.65,8.198
				s24.15,1.892,26.257-2.838c2.107-4.729,4.62-45.071,4.62-45.071L81.061,424.725z"/>
			<path style="fill:#333C4D;" d="M118.776,424.725l-1.879,25.855c0,0,6.122,12.927,12.678,15.135
				c6.555,2.207,4.65,8.198,4.65,8.198s-24.15,1.892-26.257-2.838c-2.107-4.729-4.62-45.071-4.62-45.071L118.776,424.725z"/>
			<polygon style="fill:#F26863;" points="63.686,311.308 80.475,430.733 97.313,430.733 100.283,323.813 			"/>
			<polygon style="fill:#F26863;" points="136.066,311.308 119.277,430.733 102.44,430.733 99.47,323.813 			"/>
			<g>
				<g>
					<path style="fill:#333C4D;" d="M92.695,332.487c4.195,2.21,10.361,2.556,14.707,0.563c0.315-0.145,0.069-0.556-0.217-0.514
						c-2.421,0.356-4.722,0.922-7.201,0.841c-2.465-0.08-4.758-0.696-7.141-1.241C92.639,332.089,92.495,332.381,92.695,332.487
						L92.695,332.487z"/>
				</g>
			</g>
			<g>
				<g>
					<path style="fill:#333C4D;" d="M99.33,333.433c-1.143,12.786-0.402,25.987,0.019,38.801c0.008,0.235,0.358,0.236,0.366,0
						c0.421-12.814,1.162-26.016,0.019-38.801C99.71,333.174,99.353,333.173,99.33,333.433L99.33,333.433z"/>
				</g>
			</g>
		</g>
		<g>
			<path style="fill:#333C4D;" d="M96.819,209.854c0-0.381-0.148-0.725-0.384-0.988c0.201-0.293,0.303-0.656,0.251-1.036
				c-0.065-0.477-0.352-0.865-0.741-1.086c0.263-0.364,0.363-0.84,0.221-1.302c-0.141-0.46-0.488-0.797-0.907-0.952
				c0.2-0.402,0.222-0.887,0.007-1.321c-0.217-0.438-0.622-0.716-1.068-0.797c0.133-0.429,0.095-0.906-0.187-1.3
				c-0.286-0.398-0.732-0.586-1.188-0.592c0.07-0.452-0.043-0.925-0.391-1.273c-0.271-0.27-0.621-0.402-0.975-0.42
				c-0.064-0.351-0.243-0.684-0.55-0.917c-0.384-0.292-0.857-0.344-1.288-0.225c-0.067-0.451-0.335-0.866-0.768-1.096
				c-0.425-0.226-0.909-0.218-1.315-0.032c-0.142-0.426-0.47-0.784-0.929-0.939c-0.456-0.154-0.932-0.068-1.302,0.181
				c-0.21-0.397-0.591-0.698-1.069-0.776c-0.475-0.078-0.931,0.083-1.256,0.39c-0.271-0.358-0.696-0.593-1.18-0.593
				c-0.381,0-0.725,0.148-0.988,0.384c-0.293-0.201-0.656-0.303-1.036-0.251c-0.477,0.065-0.865,0.352-1.086,0.741
				c-0.364-0.263-0.84-0.363-1.302-0.221c-0.46,0.141-0.797,0.488-0.952,0.907c-0.402-0.2-0.887-0.222-1.321-0.007
				c-0.438,0.217-0.716,0.622-0.797,1.068c-0.429-0.133-0.906-0.095-1.3,0.188c-0.398,0.286-0.586,0.732-0.592,1.188
				c-0.452-0.07-0.925,0.043-1.273,0.391c-0.271,0.27-0.402,0.621-0.42,0.975c-0.351,0.064-0.684,0.243-0.917,0.55
				c-0.292,0.384-0.344,0.857-0.225,1.288c-0.451,0.067-0.866,0.335-1.096,0.768c-0.226,0.425-0.218,0.908-0.032,1.314
				c-0.426,0.143-0.784,0.471-0.939,0.929c-0.154,0.456-0.069,0.932,0.181,1.302c-0.397,0.21-0.698,0.591-0.776,1.069
				c-0.078,0.475,0.083,0.93,0.39,1.256c-0.358,0.271-0.593,0.697-0.593,1.18c0,0.381,0.148,0.725,0.384,0.988
				c-0.201,0.293-0.303,0.656-0.251,1.036c0.065,0.477,0.352,0.865,0.741,1.086c-0.263,0.364-0.363,0.84-0.221,1.302
				c0.141,0.46,0.488,0.797,0.907,0.952c-0.2,0.402-0.222,0.887-0.007,1.321c0.217,0.438,0.622,0.716,1.068,0.797
				c-0.133,0.429-0.095,0.906,0.188,1.3c0.286,0.398,0.732,0.586,1.188,0.592c-0.07,0.452,0.043,0.925,0.391,1.273
				c0.271,0.27,0.621,0.402,0.975,0.42c0.064,0.351,0.243,0.684,0.55,0.917c0.383,0.292,0.857,0.344,1.288,0.225
				c0.067,0.451,0.335,0.866,0.768,1.096c0.425,0.226,0.908,0.219,1.314,0.032c0.143,0.426,0.471,0.784,0.929,0.939
				c0.456,0.154,0.932,0.069,1.302-0.181c0.21,0.397,0.591,0.698,1.069,0.776c0.475,0.078,0.93-0.083,1.256-0.39
				c0.271,0.358,0.697,0.593,1.18,0.593c0.381,0,0.725-0.148,0.988-0.384c0.293,0.201,0.656,0.303,1.036,0.251
				c0.477-0.065,0.865-0.352,1.086-0.741c0.364,0.263,0.84,0.363,1.302,0.221c0.46-0.141,0.797-0.488,0.952-0.907
				c0.402,0.2,0.887,0.222,1.321,0.007c0.438-0.217,0.717-0.622,0.797-1.068c0.429,0.133,0.907,0.095,1.3-0.188
				c0.398-0.286,0.586-0.732,0.592-1.188c0.452,0.07,0.926-0.043,1.274-0.391c0.271-0.271,0.402-0.621,0.42-0.975
				c0.351-0.064,0.684-0.243,0.917-0.55c0.292-0.383,0.344-0.857,0.225-1.288c0.451-0.067,0.866-0.335,1.096-0.768
				c0.226-0.425,0.218-0.908,0.032-1.314c0.426-0.143,0.784-0.471,0.939-0.929c0.154-0.456,0.068-0.932-0.181-1.302
				c0.397-0.21,0.698-0.591,0.776-1.068c0.078-0.475-0.083-0.93-0.39-1.256C96.584,210.763,96.819,210.338,96.819,209.854z"/>
			<path style="fill:#333C4D;" d="M134.87,209.854c0-0.381-0.148-0.725-0.384-0.988c0.201-0.293,0.303-0.656,0.251-1.036
				c-0.065-0.477-0.352-0.865-0.741-1.086c0.263-0.364,0.363-0.84,0.221-1.302c-0.141-0.46-0.488-0.797-0.907-0.952
				c0.2-0.402,0.222-0.887,0.007-1.321c-0.217-0.438-0.622-0.716-1.068-0.797c0.133-0.429,0.095-0.906-0.188-1.3
				c-0.286-0.398-0.732-0.586-1.188-0.592c0.07-0.452-0.043-0.925-0.391-1.273c-0.271-0.27-0.621-0.402-0.975-0.42
				c-0.064-0.351-0.243-0.684-0.55-0.917c-0.384-0.292-0.857-0.344-1.288-0.225c-0.067-0.451-0.335-0.866-0.769-1.096
				c-0.425-0.226-0.909-0.218-1.314-0.032c-0.143-0.426-0.471-0.784-0.929-0.939c-0.456-0.154-0.932-0.068-1.302,0.181
				c-0.21-0.397-0.591-0.698-1.068-0.776c-0.475-0.078-0.931,0.083-1.256,0.39c-0.271-0.358-0.696-0.593-1.18-0.593
				c-0.381,0-0.725,0.148-0.988,0.384c-0.293-0.201-0.656-0.303-1.036-0.251c-0.477,0.065-0.865,0.352-1.086,0.741
				c-0.364-0.263-0.84-0.363-1.302-0.221c-0.46,0.141-0.797,0.488-0.952,0.907c-0.402-0.2-0.887-0.222-1.321-0.007
				c-0.438,0.217-0.717,0.622-0.797,1.068c-0.429-0.133-0.906-0.095-1.3,0.188c-0.398,0.286-0.586,0.732-0.593,1.188
				c-0.452-0.07-0.926,0.043-1.273,0.391c-0.271,0.27-0.402,0.621-0.42,0.975c-0.351,0.064-0.684,0.243-0.917,0.55
				c-0.292,0.384-0.345,0.857-0.226,1.288c-0.451,0.067-0.866,0.335-1.096,0.768c-0.226,0.425-0.218,0.908-0.032,1.314
				c-0.426,0.143-0.784,0.471-0.939,0.929c-0.154,0.456-0.069,0.932,0.181,1.302c-0.397,0.21-0.698,0.591-0.776,1.069
				c-0.078,0.475,0.083,0.93,0.39,1.256c-0.358,0.271-0.593,0.697-0.593,1.18c0,0.381,0.148,0.725,0.384,0.988
				c-0.201,0.293-0.302,0.656-0.251,1.036c0.065,0.477,0.352,0.865,0.741,1.086c-0.263,0.364-0.363,0.84-0.221,1.302
				c0.141,0.46,0.488,0.797,0.907,0.952c-0.2,0.402-0.222,0.887-0.007,1.321c0.217,0.438,0.622,0.716,1.068,0.797
				c-0.133,0.429-0.095,0.906,0.188,1.3c0.286,0.398,0.733,0.586,1.188,0.592c-0.07,0.452,0.043,0.925,0.391,1.273
				c0.271,0.27,0.621,0.402,0.975,0.42c0.064,0.351,0.243,0.684,0.55,0.917c0.384,0.292,0.857,0.344,1.288,0.225
				c0.067,0.451,0.335,0.866,0.769,1.096c0.425,0.226,0.908,0.219,1.314,0.032c0.143,0.426,0.47,0.784,0.929,0.939
				c0.456,0.154,0.932,0.069,1.302-0.181c0.209,0.397,0.591,0.698,1.069,0.776c0.475,0.078,0.931-0.083,1.256-0.39
				c0.271,0.358,0.697,0.593,1.18,0.593c0.381,0,0.725-0.148,0.988-0.384c0.293,0.201,0.656,0.303,1.036,0.251
				c0.477-0.065,0.865-0.352,1.086-0.741c0.364,0.263,0.84,0.363,1.302,0.221c0.46-0.141,0.797-0.488,0.952-0.907
				c0.402,0.2,0.887,0.222,1.321,0.007c0.438-0.217,0.716-0.622,0.797-1.068c0.429,0.133,0.907,0.095,1.3-0.188
				c0.398-0.286,0.586-0.732,0.592-1.188c0.452,0.07,0.926-0.043,1.273-0.391c0.271-0.271,0.402-0.621,0.42-0.975
				c0.351-0.064,0.684-0.243,0.917-0.55c0.292-0.383,0.345-0.857,0.226-1.288c0.451-0.067,0.866-0.335,1.096-0.768
				c0.226-0.425,0.219-0.908,0.032-1.314c0.426-0.143,0.784-0.471,0.939-0.929c0.154-0.456,0.069-0.932-0.181-1.302
				c0.397-0.21,0.698-0.591,0.776-1.068c0.078-0.475-0.083-0.93-0.39-1.256C134.635,210.763,134.87,210.338,134.87,209.854z"/>
			<g>
				<path style="fill:#A35140;" d="M98.372,232.438h4.676c3.246,0,5.901-2.656,5.901-5.901v-21.719c0-3.246-2.656-5.901-5.901-5.901
					h-4.676c-3.246,0-5.901,2.656-5.901,5.901v21.719C92.471,229.782,95.127,232.438,98.372,232.438z"/>
				<path style="opacity:0.5;fill:#A35140;" d="M100.711,224.283L100.711,224.283c4.532,0,8.24-3.708,8.24-8.24v-8.888
					c0-4.532-3.708-8.24-8.24-8.24l0,0c-4.532,0-8.239,3.708-8.239,8.24v8.888C92.471,220.575,96.179,224.283,100.711,224.283z"/>
			</g>
			<g>
				<path style="fill:#A35140;" d="M117.859,194.046c0.001-0.075,0.011-0.148,0.011-0.223c0-0.242-0.027-0.477-0.036-0.717
					c-0.016-0.491-0.031-0.766-0.031-0.766s-0.007,0-0.007,0c-0.738-8.792-7.96-15.72-16.871-16.011
					c-0.134-0.006-0.265-0.026-0.4-0.028c-0.082-0.001-0.16,0.008-0.241,0.008c-0.081,0-0.16-0.009-0.241-0.008
					c-0.135,0.002-0.266,0.022-0.4,0.028c-8.911,0.292-16.133,7.22-16.871,16.011c0,0-0.007,0-0.007,0s-0.015,0.274-0.031,0.766
					c-0.01,0.24-0.036,0.475-0.036,0.717c0,0.075,0.01,0.148,0.011,0.223c-0.014,0.674,0.002,1.527,0.038,2.459
					c-0.082,2.032-0.121,3.88,0.484,5.593c1.278,8.708,8.92,14.767,17.054,14.676c8.133,0.091,15.775-5.968,17.053-14.676
					c0.605-1.713,0.567-3.561,0.484-5.593C117.856,195.573,117.872,194.72,117.859,194.046z"/>
				<path style="fill:#333C4D;" d="M100.231,174.394c-10.294-0.303-18.894,8.17-17.728,18.62c0.031,0.276,0.25,0.419,0.469,0.439
					c0.097,0.086,0.235,0.138,0.418,0.113c7.361-1.01,14.866-6.447,17.298-13.617c2.402,7.137,9.743,12.607,17.088,13.617
					c0.18,0.025,0.318-0.027,0.415-0.113c0.22-0.02,0.44-0.163,0.472-0.439C119.879,182.411,110.861,173.543,100.231,174.394z"/>
				<g>
					<path style="fill:#A35140;" d="M77.487,200.109c0,2.471,2.003,4.473,4.473,4.473c2.471,0,4.473-2.003,4.473-4.473
						s-2.003-4.473-4.473-4.473C79.49,195.636,77.487,197.639,77.487,200.109z"/>
					<g style="opacity:0.5;">
						<path style="fill:#A35140;" d="M82.637,201.652c-0.426-0.438-0.897-0.822-1.327-1.253c-0.367-0.368-1.032-0.758-1.124-1.294
							c-0.049-0.286,0.122-0.603,0.451-0.592c0.611,0.02,1.085,0.661,1.486,1.073c0.45,0.462,0.811,1.025,1.174,1.557
							C83.567,201.541,82.965,201.99,82.637,201.652L82.637,201.652z"/>
					</g>
				</g>
				<g>
					<path style="fill:#A35140;" d="M123.934,200.109c0,2.471-2.003,4.473-4.473,4.473s-4.473-2.003-4.473-4.473
						s2.003-4.473,4.473-4.473S123.934,197.639,123.934,200.109z"/>
					<g style="opacity:0.5;">
						<path style="fill:#A35140;" d="M118.785,201.652c0.426-0.438,0.897-0.822,1.327-1.253c0.367-0.368,1.032-0.758,1.124-1.294
							c0.049-0.286-0.122-0.603-0.451-0.592c-0.611,0.02-1.084,0.661-1.486,1.073c-0.45,0.462-0.811,1.025-1.174,1.557
							C117.854,201.541,118.456,201.99,118.785,201.652L118.785,201.652z"/>
					</g>
				</g>
			</g>
			<g>
				<path style="opacity:0.5;fill:#A35140;" d="M104.794,209.063c0,0.923-1.614,2.537-3.605,2.537c-1.991,0-3.605-1.614-3.605-2.537
					c0-0.923,1.614-1.01,3.605-1.01C103.18,208.052,104.794,208.139,104.794,209.063z"/>
				<path style="fill:#333C4D;" d="M89.889,194.109c1.109-0.845,2.461-1.057,3.79-1.243c0.51-0.072,0.49-0.921,0-1.011
					c-0.799-0.147-1.663,0.059-2.401,0.375c-0.78,0.334-1.225,0.898-1.7,1.569C89.452,193.978,89.709,194.246,89.889,194.109z"/>
				<path style="fill:#333C4D;" d="M111.532,194.109c-1.109-0.845-2.461-1.057-3.79-1.243c-0.51-0.072-0.49-0.921,0-1.011
					c0.799-0.147,1.663,0.059,2.401,0.375c0.78,0.334,1.225,0.898,1.7,1.569C111.969,193.978,111.712,194.246,111.532,194.109z"/>
				<path style="fill:#333C4D;" d="M104.374,203.892c-3.7-0.682-4.724-5.894-4.698-9.078c0.002-0.266-0.426-0.34-0.476-0.064
					c-0.594,3.243,0.739,8.205,4.063,9.557c-1.105,0.429-2.294,0.564-3.486,0.497c-0.525-0.03-0.518,0.775,0,0.813
					c1.755,0.131,3.164-0.21,4.684-1.066C104.714,204.406,104.685,203.949,104.374,203.892z"/>
				<path style="fill:#333C4D;" d="M104.98,208.327c-2.559,1.239-5.171,1.156-7.816,0.217c-0.204-0.073-0.369,0.248-0.167,0.35
					c2.613,1.316,5.639,1.181,8.294,0.029C105.685,208.753,105.373,208.137,104.98,208.327z"/>
				<g>
					<path style="fill:#333C4D;" d="M94.069,197.062c-0.371-0.986-1.198-1.44-2.241-1.26c-0.649,0.112-1.867,0.836-1.599,1.641
						c0.042,0.126,0.179,0.187,0.299,0.122c0.493-0.271,0.611-0.841,1.235-0.999c0.633-0.161,1.394,0.325,1.783,0.801
						C93.741,197.604,94.177,197.348,94.069,197.062L94.069,197.062z"/>
				</g>
				<g>
					<path style="fill:#333C4D;" d="M111.267,197.062c-0.371-0.986-1.198-1.44-2.241-1.26c-0.649,0.112-1.867,0.836-1.599,1.641
						c0.042,0.126,0.179,0.187,0.299,0.122c0.493-0.271,0.611-0.841,1.235-0.999c0.633-0.161,1.394,0.325,1.783,0.801
						C110.939,197.604,111.375,197.348,111.267,197.062L111.267,197.062z"/>
				</g>
			</g>
		</g>
		<g>
			<ellipse style="fill:#333C4D;" cx="100.283" cy="294.165" rx="40.405" ry="18.168"/>
			<g>
				<g>
					<path style="fill:#F26863;" d="M60.721,297.87c-0.428-1.145-0.627-1.833-0.641-1.882
						C60.222,296.626,60.437,297.254,60.721,297.87z"/>
					<path style="fill:#F26863;" d="M60.076,295.973c0,0,0.004,0.014,0.004,0.015c-0.001-0.005-0.001-0.01-0.003-0.015H60.076z"/>
					<g>
						<path style="fill:#FFAE93;" d="M100.283,312.333c-19.491,0-35.756-6.206-39.561-14.463
							c2.493,6.678,4.101,28.773,39.561,28.773c38.224,0,40.405-30.67,40.405-30.67h-0.2
							C138.468,305.158,121.24,312.333,100.283,312.333z"/>
					</g>
				</g>
			</g>
			<g>
				<g>
					<path style="fill:#A35140;" d="M67.678,283.438c-2.372,1.385-4.066,2.792-4.976,4.056
						C63.978,286.041,65.654,284.68,67.678,283.438z"/>
					<path style="fill:#A35140;" d="M145.48,297.87c-0.795-7.203-6.246-21.415-6.246-21.415s-3.293-40.541-6.002-44.856
						c-2.709-4.315-27.725-8.063-27.725-8.063l-5.529,5.489l-5.53-5.489c0,0-25.016,3.747-27.725,8.063
						c-2.709,4.315-6.002,44.856-6.002,44.856s-5.451,14.212-6.246,21.415c-0.795,7.203,5.281,18.654,14.422,20.521
						c0,0,3.18-0.032-3.407-5.142c0,0,6.927,3.975,7.836,2.271s-6.132-5.713-6.132-5.713s5.451,1.852,6.246,0.83
						c0.788-1.014-11.814-5.762-13.021-13.517c-0.35-0.962-0.54-1.949-0.54-2.955c0-2.356,1.008-4.605,2.823-6.671
						c0.91-1.264,2.604-2.671,4.976-4.056c7.352-4.511,19.215-7.442,32.605-7.442c22.315,0,40.405,8.134,40.405,18.168
						c0,2.056-0.77,4.029-2.17,5.872c-3.288,6.028-12.686,9.721-12.002,10.6c0.795,1.022,6.246-0.83,6.246-0.83
						s-7.041,4.01-6.132,5.713s7.836-2.271,7.836-2.271c-6.587,5.11-3.407,5.142-3.407,5.142
						C140.199,316.524,146.275,305.073,145.48,297.87z"/>
					<path style="fill:#A35140;" d="M100.283,275.997c-13.39,0-25.253,2.931-32.605,7.442c6.469-3.778,17.963-7.387,32.3-7.438
						c22.163,0.079,37.55,8.659,38.044,13.226c0.496,4.588-7.077,10.168-5.26,11.418c1.817,1.249,6.81-3.715,6.81-3.715
						c-0.143,1.096-0.521,2.131-1.053,3.107c1.399-1.842,2.17-3.816,2.17-5.872C140.687,284.131,122.597,275.997,100.283,275.997z"
						/>
					<path style="fill:#A35140;" d="M67.194,300.644c1.817-1.249-5.756-6.829-5.26-11.418c0.057-0.53,0.323-1.114,0.768-1.732
						c-1.815,2.066-2.823,4.315-2.823,6.671c0,1.007,0.19,1.993,0.54,2.955c-0.01-0.064-0.026-0.126-0.034-0.191
						C60.384,296.93,65.377,301.893,67.194,300.644z"/>
				</g>
			</g>
			<path style="fill:#F98DA1;" d="M100.283,275.997c9.103,0,17.501,1.354,24.257,3.638v-31.772H77.487v31.302
				C83.977,277.167,91.824,275.997,100.283,275.997z"/>
			<g>
				<g>
					<g>
						<path style="fill:#333C4D;" d="M68.529,315.969c-1.856-1.891-3.795-3.706-5.576-5.671c-1.781-1.964-3.285-4.16-5.063-6.118
							c-0.165-0.182-0.443,0.05-0.331,0.256c2.449,4.5,6.695,8.761,10.81,11.739C68.494,316.264,68.631,316.073,68.529,315.969
							L68.529,315.969z"/>
					</g>
				</g>
				<g>
					<g>
						<path style="fill:#333C4D;" d="M61.687,303.849c2.439,3.276,5.782,6.925,9.356,8.967c0.278,0.159,0.564-0.211,0.341-0.442
							c-1.482-1.53-3.254-2.791-4.82-4.238c-1.575-1.455-3.007-3.045-4.517-4.565C61.87,303.391,61.528,303.634,61.687,303.849
							L61.687,303.849z"/>
					</g>
				</g>
				<g>
					<g>
						<path style="fill:#333C4D;" d="M131.585,316.175c4.118-2.98,8.361-7.238,10.811-11.739c0.111-0.203-0.165-0.439-0.331-0.256
							c-1.778,1.957-3.282,4.154-5.063,6.118c-1.781,1.965-3.72,3.78-5.576,5.671C131.326,316.072,131.461,316.265,131.585,316.175
							L131.585,316.175z"/>
					</g>
				</g>
				<g>
					<g>
						<path style="fill:#333C4D;" d="M137.907,303.57c-1.51,1.52-2.942,3.11-4.517,4.565c-1.566,1.447-3.338,2.708-4.82,4.238
							c-0.221,0.229,0.06,0.602,0.341,0.442c3.575-2.042,6.918-5.692,9.356-8.967C138.426,303.636,138.087,303.389,137.907,303.57
							L137.907,303.57z"/>
					</g>
				</g>
				<g>
					<g>
						<path style="fill:#333C4D;" d="M123.714,241.197c-0.474,13.405,0.048,27.035,1.112,40.402c0.032,0.404,0.652,0.415,0.638,0
							c-0.481-13.463-0.771-26.943-1.309-40.402C124.143,240.913,123.724,240.913,123.714,241.197L123.714,241.197z"/>
					</g>
				</g>
				<g>
					<g>
						<path style="fill:#333C4D;" d="M77.267,241.197c-0.538,13.459-0.828,26.94-1.309,40.402c-0.015,0.414,0.605,0.404,0.637,0
							c1.064-13.368,1.586-26.998,1.112-40.402C77.698,240.913,77.278,240.913,77.267,241.197L77.267,241.197z"/>
					</g>
				</g>
				<g>
					<g>
						<path style="fill:#333C4D;" d="M56.396,291.593c1.271-3.425,2.076-6.98,3.78-10.24c1.689-3.232,4.091-5.522,6.748-7.929
							c0.286-0.259-0.082-0.724-0.409-0.53c-6.368,3.778-9.355,11.632-10.471,18.602C56.006,291.727,56.313,291.816,56.396,291.593
							L56.396,291.593z"/>
					</g>
				</g>
				<g>
					<g>
						<path style="fill:#333C4D;" d="M144.061,291.496c-1.116-6.973-4.101-14.822-10.471-18.602
							c-0.324-0.192-0.698,0.268-0.409,0.53c2.656,2.407,5.059,4.697,6.747,7.929c1.703,3.26,2.509,6.815,3.78,10.24
							C143.791,291.816,144.098,291.728,144.061,291.496L144.061,291.496z"/>
					</g>
				</g>
				<g>
					<g>
						<path style="fill:#F98DA1;" d="M121.809,251.389c5.399-3.351,10.994-6.52,16.296-10.007c0.41-0.269,0.057-0.845-0.379-0.648
							c-5.732,2.598-11.295,6.361-16.264,10.206C121.204,251.139,121.537,251.558,121.809,251.389L121.809,251.389z"/>
					</g>
				</g>
				<g>
					<g>
						<path style="fill:#F98DA1;" d="M122.749,251.878c5.167-0.824,10.346-1.384,15.556-1.826c0.552-0.047,0.566-0.903,0-0.872
							c-5.291,0.294-10.523,1.063-15.703,2.165C122.249,251.419,122.404,251.933,122.749,251.878L122.749,251.878z"/>
					</g>
				</g>
				<g>
					<g>
						<path style="fill:#F98DA1;" d="M122.002,253.357c5.687,0.398,11.379,0.682,17.064,1.116c0.68,0.052,0.676-1.006,0-1.059
							c-5.679-0.45-11.366-0.8-17.064-0.788C121.527,252.627,121.537,253.325,122.002,253.357L122.002,253.357z"/>
					</g>
				</g>
				<g>
					<g>
						<path style="fill:#F98DA1;" d="M79.055,250.94c-4.965-3.842-10.533-7.608-16.264-10.206c-0.435-0.197-0.789,0.378-0.379,0.648
							c5.302,3.488,10.896,6.656,16.296,10.007C78.978,251.556,79.316,251.142,79.055,250.94L79.055,250.94z"/>
					</g>
				</g>
				<g>
					<g>
						<path style="fill:#F98DA1;" d="M77.916,251.344c-5.181-1.102-10.412-1.871-15.703-2.165c-0.564-0.031-0.553,0.825,0,0.872
							c5.21,0.443,10.39,1.002,15.556,1.826C78.113,251.932,78.269,251.419,77.916,251.344L77.916,251.344z"/>
					</g>
				</g>
				<g>
					<g>
						<path style="fill:#F98DA1;" d="M78.515,252.626c-5.698-0.012-11.385,0.338-17.064,0.788c-0.675,0.053-0.682,1.111,0,1.059
							c5.684-0.434,11.377-0.719,17.064-1.116C78.98,253.325,78.991,252.627,78.515,252.626L78.515,252.626z"/>
					</g>
				</g>
			</g>
			<g>
				<circle style="fill:#F7D454;" cx="118.191" cy="285.564" r="9.383"/>
				<g>
					<g>
						<path style="fill:#FFF7EA;" d="M119.487,270.2c-1.749,1.934-2.135,4.989-2.417,7.482c-0.084,0.745,1.192,0.923,1.318,0.178
							c0.21-1.247,0.352-2.504,0.626-3.741c0.27-1.22,0.741-2.365,1.093-3.559C120.209,270.214,119.738,269.923,119.487,270.2
							L119.487,270.2z"/>
					</g>
					<g>
						<path style="fill:#009B56;" d="M133.225,270.719c-0.044-0.059-0.099-0.112-0.181-0.144c-4.638-1.815-9.964,0.612-11.858,5.173
							c-0.132,0.318,0.364,0.491,0.535,0.226c0.044-0.069,0.092-0.133,0.137-0.2c0.014,0.008,0.021,0.021,0.038,0.028
							c4.444,2.074,9.37-0.534,11.523-4.664C133.513,270.957,133.386,270.761,133.225,270.719z"/>
						<g>
							<path style="fill:#FFF7EA;" d="M119.68,277.611c3.061-2.547,6.321-3.445,10.012-4.684c0.363-0.122,0.216-0.645-0.158-0.572
								c-3.578,0.704-7.774,2.025-10.106,5.004C119.289,277.538,119.501,277.759,119.68,277.611L119.68,277.611z"/>
						</g>
					</g>
				</g>
			</g>
			<g>
				<circle style="fill:#E89A3D;" cx="79.412" cy="283.772" r="9.383"/>
				<g>
					<g>
						<path style="fill:#FFF7EA;" d="M73.982,269.341c-0.748,2.498,0.215,5.422,1.032,7.795c0.244,0.709,1.473,0.322,1.266-0.405
							c-0.346-1.217-0.758-2.413-1.042-3.647c-0.28-1.217-0.347-2.454-0.542-3.683C74.639,269.043,74.089,268.983,73.982,269.341
							L73.982,269.341z"/>
					</g>
					<g>
						<path style="fill:#009B56;" d="M86.61,263.907c-0.065-0.034-0.137-0.059-0.225-0.052c-4.968,0.354-8.735,4.834-8.485,9.766
							c0.017,0.344,0.54,0.287,0.58-0.026c0.01-0.081,0.026-0.159,0.037-0.24c0.017,0.002,0.028,0.009,0.046,0.009
							c4.904-0.037,8.232-4.508,8.401-9.163C86.972,263.998,86.773,263.876,86.61,263.907z"/>
						<g>
							<path style="fill:#FFF7EA;" d="M77.34,275.949c1.67-3.615,4.227-5.827,7.029-8.531c0.276-0.266-0.082-0.676-0.388-0.449
								c-2.929,2.173-6.15,5.168-6.976,8.861C76.955,276.052,77.242,276.161,77.34,275.949L77.34,275.949z"/>
						</g>
					</g>
				</g>
			</g>
			<g>
				<circle style="fill:#F7D454;" cx="97.765" cy="293.396" r="9.383"/>
				<g>
					<g>
						<path style="fill:#FFF7EA;" d="M99.062,278.032c-1.748,1.934-2.135,4.989-2.417,7.482c-0.084,0.745,1.192,0.923,1.318,0.178
							c0.21-1.247,0.352-2.504,0.626-3.741c0.27-1.22,0.741-2.365,1.093-3.559C99.784,278.046,99.313,277.754,99.062,278.032
							L99.062,278.032z"/>
					</g>
					<g>
						<path style="fill:#009B56;" d="M112.8,278.551c-0.044-0.059-0.099-0.112-0.181-0.144c-4.638-1.815-9.964,0.612-11.858,5.173
							c-0.132,0.318,0.364,0.491,0.535,0.226c0.044-0.069,0.092-0.133,0.137-0.2c0.014,0.009,0.021,0.02,0.038,0.028
							c4.444,2.074,9.371-0.534,11.523-4.664C113.088,278.789,112.961,278.593,112.8,278.551z"/>
						<g>
							<path style="fill:#FFF7EA;" d="M99.255,285.442c3.061-2.547,6.321-3.445,10.012-4.684c0.364-0.122,0.216-0.645-0.158-0.572
								c-3.578,0.704-7.774,2.025-10.106,5.004C98.864,285.37,99.076,285.591,99.255,285.442L99.255,285.442z"/>
						</g>
					</g>
				</g>
			</g>
			<g>
				<path style="fill:#E89A3D;" d="M121.116,306.687c-3.089,4.161-8.965,5.03-13.126,1.941c-4.161-3.089-5.03-8.965-1.941-13.126
					c3.089-4.161,8.965-5.03,13.126-1.941C123.336,296.649,124.205,302.526,121.116,306.687z"/>
				<g>
					<g>
						<path style="fill:#FFF7EA;" d="M123.781,289.531c-2.557,0.511-4.688,2.733-6.401,4.567c-0.512,0.548,0.407,1.452,0.952,0.928
							c0.912-0.876,1.775-1.801,2.732-2.631c0.944-0.818,2.005-1.457,2.999-2.206C124.352,289.972,124.148,289.457,123.781,289.531
							L123.781,289.531z"/>
					</g>
					<g>
						<path style="fill:#009B56;" d="M134.503,298.136c0-0.073-0.013-0.149-0.059-0.223c-2.642-4.222-8.366-5.448-12.605-2.914
							c-0.296,0.177,0,0.611,0.295,0.5c0.076-0.029,0.153-0.052,0.229-0.079c0.007,0.015,0.005,0.029,0.014,0.045
							c2.332,4.314,7.842,5.157,12.033,3.123C134.592,298.498,134.607,298.266,134.503,298.136z"/>
						<g>
							<path style="fill:#FFF7EA;" d="M119.52,295.596c3.976-0.22,7.129,1.001,10.831,2.207c0.365,0.119,0.558-0.389,0.214-0.553
								c-3.292-1.568-7.449-3.008-11.098-2.006C119.248,295.304,119.287,295.609,119.52,295.596L119.52,295.596z"/>
						</g>
					</g>
				</g>
			</g>
			<g>
				<path style="fill:#E89A3D;" d="M88.335,290.474c4.834,1.867,7.239,7.299,5.372,12.133c-1.867,4.834-7.299,7.239-12.133,5.372
					c-4.834-1.867-7.239-7.299-5.372-12.133C78.069,291.012,83.501,288.607,88.335,290.474z"/>
				<g>
					<g>
						<path style="fill:#FFF7EA;" d="M71.089,292.482c1.175,2.328,3.885,3.789,6.109,4.95c0.664,0.347,1.291-0.779,0.641-1.165
							c-1.088-0.646-2.209-1.23-3.264-1.932c-1.041-0.691-1.939-1.543-2.926-2.302C71.362,291.814,70.921,292.148,71.089,292.482
							L71.089,292.482z"/>
					</g>
					<g>
						<path style="fill:#009B56;" d="M76.522,279.853c-0.071,0.019-0.14,0.052-0.199,0.117c-3.364,3.672-3.019,9.516,0.554,12.926
							c0.249,0.238,0.589-0.163,0.403-0.418c-0.048-0.066-0.091-0.133-0.138-0.199c0.013-0.01,0.027-0.013,0.04-0.025
							c3.535-3.398,2.878-8.934-0.199-12.43C76.848,279.671,76.62,279.718,76.522,279.853z"/>
						<g>
							<path style="fill:#FFF7EA;" d="M78.071,294.971c-1.273-3.773-0.937-7.137-0.762-11.027c0.017-0.383-0.524-0.434-0.59-0.059
								c-0.633,3.591-0.912,7.981,1.027,11.23C77.863,295.31,78.146,295.192,78.071,294.971L78.071,294.971z"/>
						</g>
					</g>
				</g>
			</g>
		</g>
	</g>
</g>
</svg>
